<?xml version="1.0" encoding="UTF-8" standalone="no"?>
<!DOCTYPE svg PUBLIC "-//W3C//DTD SVG 1.1//EN"
 "http://www.w3.org/Graphics/SVG/1.1/DTD/svg11.dtd">
<!-- Generated by graphviz version 2.26.3 (20100126.1600)
 -->
<!-- Title: G Pages: 1 -->
<svg width="423pt" height="4076pt"
 viewBox="0.00 0.00 423.00 4076.00" xmlns="http://www.w3.org/2000/svg" xmlns:xlink="http://www.w3.org/1999/xlink">
<g id="graph1" class="graph" transform="scale(1 1) rotate(0) translate(4 4072)">
<title>G</title>
<polygon fill="white" stroke="white" points="-4,5 -4,-4072 420,-4072 420,5 -4,5"/>
<g id="graph2" class="cluster"><title>cluster_Global</title>
<polyline fill="none" stroke="gray" points="20,-98 395,-98 "/>
<path fill="none" stroke="gray" d="M395,-98C401,-98 407,-104 407,-110"/>
<polyline fill="none" stroke="gray" points="407,-110 407,-4048 "/>
<path fill="none" stroke="gray" d="M407,-4048C407,-4054 401,-4060 395,-4060"/>
<polyline fill="none" stroke="gray" points="395,-4060 20,-4060 "/>
<path fill="none" stroke="gray" d="M20,-4060C14,-4060 8,-4054 8,-4048"/>
<polyline fill="none" stroke="gray" points="8,-4048 8,-110 "/>
<path fill="none" stroke="gray" d="M8,-110C8,-104 14,-98 20,-98"/>
<text text-anchor="middle" x="207.5" y="-4046.1" font-family="Times Roman,serif" font-size="11.00" fill="gray">Global</text>
</g>
<!-- \\Users -->
<g id="node2" class="node"><title>\\Users</title>
<polygon fill="none" stroke="black" points="344,-3544 290,-3544 290,-3508 344,-3508 344,-3544"/>
<text text-anchor="middle" x="317" y="-3523.1" font-family="Times Roman,serif" font-size="11.00">Users</text>
</g>
<!-- \\CI_Controller -->
<g id="node82" class="node"><title>\\CI_Controller</title>
<ellipse fill="none" stroke="black" cx="82" cy="-72" rx="80.1057" ry="18"/>
<text text-anchor="middle" x="82" y="-67.9" font-family="Times Roman,serif" font-size="14.00" fill="gray">\CI_Controller</text>
</g>
<!-- \\Users&#45;&gt;\\CI_Controller -->
<g id="edge3" class="edge"><title>\\Users&#45;&gt;\\CI_Controller</title>
<path fill="none" stroke="black" d="M289.833,-3524.83C271.167,-3522.45 247.568,-3515.99 235,-3499 122.472,-3346.89 279.51,-243.082 163,-94 161.312,-91.84 159.435,-89.8787 157.405,-88.0985"/>
<polygon fill="none" stroke="black" points="159.086,-85.0014 148.899,-82.0929 155.049,-90.7198 159.086,-85.0014"/>
</g>
<!-- \\Authorize -->
<g id="node3" class="node"><title>\\Authorize</title>
<polygon fill="none" stroke="black" points="354,-3490 280,-3490 280,-3454 354,-3454 354,-3490"/>
<text text-anchor="middle" x="317" y="-3469.1" font-family="Times Roman,serif" font-size="11.00">Authorize</text>
</g>
<!-- \\Authorize&#45;&gt;\\CI_Controller -->
<g id="edge5" class="edge"><title>\\Authorize&#45;&gt;\\CI_Controller</title>
<path fill="none" stroke="black" d="M279.954,-3469.23C263.456,-3465.95 245.431,-3459.1 235,-3445 124.231,-3295.32 277.688,-240.7 163,-94 161.312,-91.8403 159.434,-89.8792 157.404,-88.0992"/>
<polygon fill="none" stroke="black" points="159.085,-85.0018 148.897,-82.0943 155.048,-90.7206 159.085,-85.0018"/>
</g>
<!-- \\Listings -->
<g id="node4" class="node"><title>\\Listings</title>
<polygon fill="none" stroke="black" points="348,-3436 286,-3436 286,-3400 348,-3400 348,-3436"/>
<text text-anchor="middle" x="317" y="-3415.1" font-family="Times Roman,serif" font-size="11.00">Listings</text>
</g>
<!-- \\Listings&#45;&gt;\\CI_Controller -->
<g id="edge7" class="edge"><title>\\Listings&#45;&gt;\\CI_Controller</title>
<path fill="none" stroke="black" d="M285.797,-3416.26C267.881,-3413.48 246.682,-3406.78 235,-3391 125.989,-3243.75 275.866,-238.317 163,-94 161.311,-91.8406 159.433,-89.8798 157.403,-88.1"/>
<polygon fill="none" stroke="black" points="159.083,-85.0022 148.895,-82.0957 155.047,-90.7214 159.083,-85.0022"/>
</g>
<!-- \\Welcome -->
<g id="node5" class="node"><title>\\Welcome</title>
<polygon fill="none" stroke="black" points="351,-3382 283,-3382 283,-3346 351,-3346 351,-3382"/>
<text text-anchor="middle" x="317" y="-3361.1" font-family="Times Roman,serif" font-size="11.00">Welcome</text>
</g>
<!-- \\Welcome&#45;&gt;\\CI_Controller -->
<g id="edge9" class="edge"><title>\\Welcome&#45;&gt;\\CI_Controller</title>
<path fill="none" stroke="black" d="M282.901,-3361.78C265.645,-3358.74 246.061,-3351.94 235,-3337 127.747,-3192.18 274.044,-235.934 163,-94 161.311,-91.8409 159.432,-89.8804 157.402,-88.1008"/>
<polygon fill="none" stroke="black" points="159.082,-85.0026 148.893,-82.0972 155.046,-90.7222 159.082,-85.0026"/>
</g>
<!-- \\Image -->
<g id="node6" class="node"><title>\\Image</title>
<polygon fill="none" stroke="black" points="344,-3814 290,-3814 290,-3778 344,-3778 344,-3814"/>
<text text-anchor="middle" x="317" y="-3793.1" font-family="Times Roman,serif" font-size="11.00">Image</text>
</g>
<!-- \\Bitcoin -->
<g id="node7" class="node"><title>\\Bitcoin</title>
<polygon fill="none" stroke="black" points="346,-3328 288,-3328 288,-3292 346,-3292 346,-3328"/>
<text text-anchor="middle" x="317" y="-3307.1" font-family="Times Roman,serif" font-size="11.00">Bitcoin</text>
</g>
<!-- \\Bitcoin&#45;&gt;\\CI_Controller -->
<g id="edge11" class="edge"><title>\\Bitcoin&#45;&gt;\\CI_Controller</title>
<path fill="none" stroke="black" d="M287.838,-3308.56C269.519,-3305.97 247.134,-3299.38 235,-3283 129.505,-3140.61 272.222,-233.551 163,-94 161.31,-91.8412 159.432,-89.8809 157.401,-88.1016"/>
<polygon fill="none" stroke="black" points="159.08,-85.0031 148.891,-82.0987 155.045,-90.7231 159.08,-85.0031"/>
</g>
<!-- \\Messages -->
<g id="node8" class="node"><title>\\Messages</title>
<polygon fill="none" stroke="black" points="353,-2356 281,-2356 281,-2320 353,-2320 353,-2356"/>
<text text-anchor="middle" x="317" y="-2335.1" font-family="Times Roman,serif" font-size="11.00">Messages</text>
</g>
<!-- \\Messages&#45;&gt;\\CI_Controller -->
<g id="edge13" class="edge"><title>\\Messages&#45;&gt;\\CI_Controller</title>
<path fill="none" stroke="black" d="M280.866,-2335.35C264.158,-2332.12 245.688,-2325.28 235,-2311 87.3024,-2113.69 315.862,-287.332 163,-94 161.3,-91.8496 159.412,-89.8965 157.373,-88.1232"/>
<polygon fill="none" stroke="black" points="159.037,-85.0153 148.841,-82.1385 155.018,-90.7462 159.037,-85.0153"/>
</g>
<!-- \\Accounts -->
<g id="node9" class="node"><title>\\Accounts</title>
<polygon fill="none" stroke="black" points="351,-2140 283,-2140 283,-2104 351,-2104 351,-2140"/>
<text text-anchor="middle" x="317" y="-2119.1" font-family="Times Roman,serif" font-size="11.00">Accounts</text>
</g>
<!-- \\Accounts&#45;&gt;\\CI_Controller -->
<g id="edge15" class="edge"><title>\\Accounts&#45;&gt;\\CI_Controller</title>
<path fill="none" stroke="black" d="M282.147,-2119.57C265.121,-2116.44 245.983,-2109.62 235,-2095 101.365,-1917.13 301.291,-268.275 163,-94 161.296,-91.8526 159.405,-89.902 157.364,-88.1309"/>
<polygon fill="none" stroke="black" points="159.022,-85.0197 148.823,-82.1526 155.008,-90.7544 159.022,-85.0197"/>
</g>
<!-- \\Admin -->
<g id="node10" class="node"><title>\\Admin</title>
<polygon fill="none" stroke="black" points="344,-2086 290,-2086 290,-2050 344,-2050 344,-2086"/>
<text text-anchor="middle" x="317" y="-2065.1" font-family="Times Roman,serif" font-size="11.00">Admin</text>
</g>
<!-- \\Admin&#45;&gt;\\CI_Controller -->
<g id="edge17" class="edge"><title>\\Admin&#45;&gt;\\CI_Controller</title>
<path fill="none" stroke="black" d="M289.915,-2066.77C271.288,-2064.36 247.702,-2057.89 235,-2041 104.88,-1867.99 297.648,-263.511 163,-94 161.295,-91.8534 159.403,-89.9036 157.361,-88.1331"/>
<polygon fill="none" stroke="black" points="159.018,-85.0209 148.818,-82.1566 155.006,-90.7568 159.018,-85.0209"/>
</g>
<!-- \\Reviews -->
<g id="node11" class="node"><title>\\Reviews</title>
<polygon fill="none" stroke="black" points="348,-2032 286,-2032 286,-1996 348,-1996 348,-2032"/>
<text text-anchor="middle" x="317" y="-2011.1" font-family="Times Roman,serif" font-size="11.00">Reviews</text>
</g>
<!-- \\Reviews&#45;&gt;\\CI_Controller -->
<g id="edge19" class="edge"><title>\\Reviews&#45;&gt;\\CI_Controller</title>
<path fill="none" stroke="black" d="M285.888,-2012.19C268.005,-2009.39 246.81,-2002.69 235,-1987 108.396,-1818.85 294.006,-258.747 163,-94 161.294,-91.8543 159.401,-89.9052 157.358,-88.1354"/>
<polygon fill="none" stroke="black" points="159.014,-85.0222 148.812,-82.1609 155.003,-90.7592 159.014,-85.0222"/>
</g>
<!-- \\Callback -->
<g id="node12" class="node"><title>\\Callback</title>
<polygon fill="none" stroke="black" points="350,-1816 284,-1816 284,-1780 350,-1780 350,-1816"/>
<text text-anchor="middle" x="317" y="-1795.1" font-family="Times Roman,serif" font-size="11.00">Callback</text>
</g>
<!-- \\Callback&#45;&gt;\\CI_Controller -->
<g id="edge21" class="edge"><title>\\Callback&#45;&gt;\\CI_Controller</title>
<path fill="none" stroke="black" d="M283.855,-1795.83C266.438,-1792.83 246.396,-1786.06 235,-1771 122.455,-1622.28 279.437,-239.693 163,-94 161.289,-91.8585 159.391,-89.913 157.345,-88.1461"/>
<polygon fill="none" stroke="black" points="158.992,-85.0284 148.788,-82.1808 154.989,-90.7708 158.992,-85.0284"/>
</g>
<!-- \\Orders -->
<g id="node13" class="node"><title>\\Orders</title>
<polygon fill="none" stroke="black" points="345,-1762 289,-1762 289,-1726 345,-1726 345,-1762"/>
<text text-anchor="middle" x="317" y="-1741.1" font-family="Times Roman,serif" font-size="11.00">Orders</text>
</g>
<!-- \\Orders&#45;&gt;\\CI_Controller -->
<g id="edge23" class="edge"><title>\\Orders&#45;&gt;\\CI_Controller</title>
<path fill="none" stroke="black" d="M288.758,-1742.59C270.345,-1740.04 247.493,-1733.48 235,-1717 125.97,-1573.14 275.795,-234.93 163,-94 161.287,-91.8597 159.388,-89.9152 157.341,-88.1493"/>
<polygon fill="none" stroke="black" points="158.986,-85.0302 148.78,-82.1865 154.985,-90.7742 158.986,-85.0302"/>
</g>
<!-- \\Items -->
<g id="node14" class="node"><title>\\Items</title>
<polygon fill="none" stroke="black" points="344,-3652 290,-3652 290,-3616 344,-3616 344,-3652"/>
<text text-anchor="middle" x="317" y="-3631.1" font-family="Times Roman,serif" font-size="11.00">Items</text>
</g>
<!-- \\Items&#45;&gt;\\CI_Controller -->
<g id="edge25" class="edge"><title>\\Items&#45;&gt;\\CI_Controller</title>
<path fill="none" stroke="black" d="M289.83,-3632.84C271.162,-3630.46 247.563,-3623.99 235,-3607 118.956,-3450.03 283.153,-247.848 163,-94 161.313,-91.8395 159.436,-89.8777 157.407,-88.0971"/>
<polygon fill="none" stroke="black" points="159.089,-85.0006 148.902,-82.0903 155.051,-90.7183 159.089,-85.0006"/>
</g>
<!-- \\Bitcoin_Test -->
<g id="node15" class="node"><title>\\Bitcoin_Test</title>
<polygon fill="none" stroke="black" points="360,-3598 274,-3598 274,-3562 360,-3562 360,-3598"/>
<text text-anchor="middle" x="317" y="-3577.1" font-family="Times Roman,serif" font-size="11.00">Bitcoin_Test</text>
</g>
<!-- \\Bitcoin_Test&#45;&gt;\\CI_Controller -->
<g id="edge27" class="edge"><title>\\Bitcoin_Test&#45;&gt;\\CI_Controller</title>
<path fill="none" stroke="black" d="M273.977,-3575.9C259.246,-3572.21 244.179,-3565.41 235,-3553 120.714,-3398.46 281.332,-245.465 163,-94 161.312,-91.8397 159.435,-89.8782 157.406,-88.0978"/>
<polygon fill="none" stroke="black" points="159.088,-85.001 148.9,-82.0916 155.05,-90.719 159.088,-85.001"/>
</g>
<!-- \\Bw_captcha -->
<g id="node16" class="node"><title>\\Bw_captcha</title>
<polygon fill="none" stroke="black" points="360,-3274 274,-3274 274,-3238 360,-3238 360,-3274"/>
<text text-anchor="middle" x="317" y="-3253.1" font-family="Times Roman,serif" font-size="11.00">Bw_captcha</text>
</g>
<!-- \\Bw_session -->
<g id="node17" class="node"><title>\\Bw_session</title>
<polygon fill="none" stroke="black" points="358,-3220 276,-3220 276,-3184 358,-3184 358,-3220"/>
<text text-anchor="middle" x="317" y="-3199.1" font-family="Times Roman,serif" font-size="11.00">Bw_session</text>
</g>
<!-- \\Current_User -->
<g id="node18" class="node"><title>\\Current_User</title>
<polygon fill="none" stroke="black" points="364,-3166 270,-3166 270,-3130 364,-3130 364,-3166"/>
<text text-anchor="middle" x="317" y="-3145.1" font-family="Times Roman,serif" font-size="11.00">Current_User</text>
</g>
<!-- \\Bw_Transaction -->
<g id="node19" class="node"><title>\\Bw_Transaction</title>
<polygon fill="none" stroke="black" points="370,-3112 264,-3112 264,-3076 370,-3076 370,-3112"/>
<text text-anchor="middle" x="317" y="-3091.1" font-family="Times Roman,serif" font-size="11.00">Bw_Transaction</text>
</g>
<!-- \\Price_Index -->
<g id="node20" class="node"><title>\\Price_Index</title>
<polygon fill="none" stroke="black" points="358,-3058 276,-3058 276,-3022 358,-3022 358,-3058"/>
<text text-anchor="middle" x="317" y="-3037.1" font-family="Times Roman,serif" font-size="11.00">Price_Index</text>
</g>
<!-- \\Delete_Message_History -->
<g id="node21" class="node"><title>\\Delete_Message_History</title>
<polygon fill="none" stroke="black" points="396,-3004 238,-3004 238,-2968 396,-2968 396,-3004"/>
<text text-anchor="middle" x="317" y="-2983.1" font-family="Times Roman,serif" font-size="11.00">Delete_Message_History</text>
</g>
<!-- \\Version_Checker -->
<g id="node22" class="node"><title>\\Version_Checker</title>
<polygon fill="none" stroke="black" points="373,-2950 261,-2950 261,-2914 373,-2914 373,-2950"/>
<text text-anchor="middle" x="317" y="-2929.1" font-family="Times Roman,serif" font-size="11.00">Version_Checker</text>
</g>
<!-- \\Bw_config -->
<g id="node23" class="node"><title>\\Bw_config</title>
<polygon fill="none" stroke="black" points="354,-2896 280,-2896 280,-2860 354,-2860 354,-2896"/>
<text text-anchor="middle" x="317" y="-2875.1" font-family="Times Roman,serif" font-size="11.00">Bw_config</text>
</g>
<!-- \\Jsonrpcclient -->
<g id="node24" class="node"><title>\\Jsonrpcclient</title>
<polygon fill="none" stroke="black" points="363,-2842 271,-2842 271,-2806 363,-2806 363,-2842"/>
<text text-anchor="middle" x="317" y="-2821.1" font-family="Times Roman,serif" font-size="11.00">Jsonrpcclient</text>
</g>
<!-- \\Raw_transaction -->
<g id="node25" class="node"><title>\\Raw_transaction</title>
<polygon fill="none" stroke="black" points="373,-2788 261,-2788 261,-2752 373,-2752 373,-2788"/>
<text text-anchor="middle" x="317" y="-2767.1" font-family="Times Roman,serif" font-size="11.00">Raw_transaction</text>
</g>
<!-- \\General -->
<g id="node26" class="node"><title>\\General</title>
<polygon fill="none" stroke="black" points="348,-2734 286,-2734 286,-2698 348,-2698 348,-2734"/>
<text text-anchor="middle" x="317" y="-2713.1" font-family="Times Roman,serif" font-size="11.00">General</text>
</g>
<!-- \\Openssl -->
<g id="node27" class="node"><title>\\Openssl</title>
<polygon fill="none" stroke="black" points="348,-2680 286,-2680 286,-2644 348,-2644 348,-2680"/>
<text text-anchor="middle" x="317" y="-2659.1" font-family="Times Roman,serif" font-size="11.00">Openssl</text>
</g>
<!-- \\BitcoinLib -->
<g id="node28" class="node"><title>\\BitcoinLib</title>
<polygon fill="none" stroke="black" points="355,-2626 279,-2626 279,-2590 355,-2590 355,-2626"/>
<text text-anchor="middle" x="317" y="-2605.1" font-family="Times Roman,serif" font-size="11.00">BitcoinLib</text>
</g>
<!-- \\Layout -->
<g id="node29" class="node"><title>\\Layout</title>
<polygon fill="none" stroke="black" points="345,-2572 289,-2572 289,-2536 345,-2536 345,-2572"/>
<text text-anchor="middle" x="317" y="-2551.1" font-family="Times Roman,serif" font-size="11.00">Layout</text>
</g>
<!-- \\Bw_messages -->
<g id="node30" class="node"><title>\\Bw_messages</title>
<polygon fill="none" stroke="black" points="364,-2518 270,-2518 270,-2482 364,-2482 364,-2518"/>
<text text-anchor="middle" x="317" y="-2497.1" font-family="Times Roman,serif" font-size="11.00">Bw_messages</text>
</g>
<!-- \\Bw_curl -->
<g id="node31" class="node"><title>\\Bw_curl</title>
<polygon fill="none" stroke="black" points="348,-2464 286,-2464 286,-2428 348,-2428 348,-2464"/>
<text text-anchor="middle" x="317" y="-2443.1" font-family="Times Roman,serif" font-size="11.00">Bw_curl</text>
</g>
<!-- \\Autorun -->
<g id="node32" class="node"><title>\\Autorun</title>
<polygon fill="none" stroke="black" points="349,-2410 285,-2410 285,-2374 349,-2374 349,-2410"/>
<text text-anchor="middle" x="317" y="-2389.1" font-family="Times Roman,serif" font-size="11.00">Autorun</text>
</g>
<!-- \\PrivateKey -->
<g id="node33" class="node"><title>\\PrivateKey</title>
<polygon fill="none" stroke="black" points="356,-4030 278,-4030 278,-3994 356,-3994 356,-4030"/>
<text text-anchor="middle" x="317" y="-4009.1" font-family="Times Roman,serif" font-size="11.00">PrivateKey</text>
</g>
<!-- \\PrivateKeyInterface -->
<g id="node77" class="node"><title>\\PrivateKeyInterface</title>
<polygon fill="none" stroke="black" points="147,-4030 17,-4030 17,-3994 147,-3994 147,-4030"/>
<text text-anchor="middle" x="82" y="-4009.1" font-family="Times Roman,serif" font-size="11.00">PrivateKeyInterface</text>
</g>
<!-- \\PrivateKey&#45;&gt;\\PrivateKeyInterface -->
<g id="edge29" class="edge"><title>\\PrivateKey&#45;&gt;\\PrivateKeyInterface</title>
<path fill="none" stroke="black" stroke-dasharray="1,5" d="M277.931,-4012C245.325,-4012 197.889,-4012 157.86,-4012"/>
<polygon fill="none" stroke="black" points="157.856,-4008.5 147.856,-4012 157.856,-4015.5 157.856,-4008.5"/>
</g>
<!-- \\TestSuite -->
<g id="node34" class="node"><title>\\TestSuite</title>
<polygon fill="none" stroke="black" points="351,-2302 283,-2302 283,-2266 351,-2266 351,-2302"/>
<text text-anchor="middle" x="317" y="-2281.1" font-family="Times Roman,serif" font-size="11.00">TestSuite</text>
</g>
<!-- \\gmp_Utils -->
<g id="node35" class="node"><title>\\gmp_Utils</title>
<polygon fill="none" stroke="black" points="354,-2248 280,-2248 280,-2212 354,-2212 354,-2248"/>
<text text-anchor="middle" x="317" y="-2227.1" font-family="Times Roman,serif" font-size="11.00">gmp_Utils</text>
</g>
<!-- \\bcmath_Utils -->
<g id="node36" class="node"><title>\\bcmath_Utils</title>
<polygon fill="none" stroke="black" points="363,-2194 271,-2194 271,-2158 363,-2158 363,-2194"/>
<text text-anchor="middle" x="317" y="-2173.1" font-family="Times Roman,serif" font-size="11.00">bcmath_Utils</text>
</g>
<!-- \\EcDH -->
<g id="node37" class="node"><title>\\EcDH</title>
<polygon fill="none" stroke="black" points="344,-3976 290,-3976 290,-3940 344,-3940 344,-3976"/>
<text text-anchor="middle" x="317" y="-3955.1" font-family="Times Roman,serif" font-size="11.00">EcDH</text>
</g>
<!-- \\EcDHInterface -->
<g id="node79" class="node"><title>\\EcDHInterface</title>
<polygon fill="none" stroke="black" points="132,-3976 32,-3976 32,-3940 132,-3940 132,-3976"/>
<text text-anchor="middle" x="82" y="-3955.1" font-family="Times Roman,serif" font-size="11.00">EcDHInterface</text>
</g>
<!-- \\EcDH&#45;&gt;\\EcDHInterface -->
<g id="edge31" class="edge"><title>\\EcDH&#45;&gt;\\EcDHInterface</title>
<path fill="none" stroke="black" stroke-dasharray="1,5" d="M289.583,-3958C253.825,-3958 190.253,-3958 142.85,-3958"/>
<polygon fill="none" stroke="black" points="142.694,-3954.5 132.694,-3958 142.694,-3961.5 142.694,-3954.5"/>
</g>
<!-- \\CurveFp -->
<g id="node38" class="node"><title>\\CurveFp</title>
<polygon fill="none" stroke="black" points="349,-3922 285,-3922 285,-3886 349,-3886 349,-3922"/>
<text text-anchor="middle" x="317" y="-3901.1" font-family="Times Roman,serif" font-size="11.00">CurveFp</text>
</g>
<!-- \\CurveFpInterface -->
<g id="node75" class="node"><title>\\CurveFpInterface</title>
<polygon fill="none" stroke="black" points="141,-3922 23,-3922 23,-3886 141,-3886 141,-3922"/>
<text text-anchor="middle" x="82" y="-3901.1" font-family="Times Roman,serif" font-size="11.00">CurveFpInterface</text>
</g>
<!-- \\CurveFp&#45;&gt;\\CurveFpInterface -->
<g id="edge33" class="edge"><title>\\CurveFp&#45;&gt;\\CurveFpInterface</title>
<path fill="none" stroke="black" stroke-dasharray="1,5" d="M284.324,-3904C250.043,-3904 195.134,-3904 151.163,-3904"/>
<polygon fill="none" stroke="black" points="151.101,-3900.5 141.101,-3904 151.101,-3907.5 151.101,-3900.5"/>
</g>
<!-- \\Point -->
<g id="node39" class="node"><title>\\Point</title>
<polygon fill="none" stroke="black" points="344,-3868 290,-3868 290,-3832 344,-3832 344,-3868"/>
<text text-anchor="middle" x="317" y="-3847.1" font-family="Times Roman,serif" font-size="11.00">Point</text>
</g>
<!-- \\PointInterface -->
<g id="node78" class="node"><title>\\PointInterface</title>
<polygon fill="none" stroke="black" points="131,-3868 33,-3868 33,-3832 131,-3832 131,-3868"/>
<text text-anchor="middle" x="82" y="-3847.1" font-family="Times Roman,serif" font-size="11.00">PointInterface</text>
</g>
<!-- \\Point&#45;&gt;\\PointInterface -->
<g id="edge35" class="edge"><title>\\Point&#45;&gt;\\PointInterface</title>
<path fill="none" stroke="black" stroke-dasharray="1,5" d="M289.583,-3850C253.487,-3850 189.047,-3850 141.509,-3850"/>
<polygon fill="none" stroke="black" points="141.335,-3846.5 131.335,-3850 141.335,-3853.5 141.335,-3846.5"/>
</g>
<!-- \\SECcurve -->
<g id="node40" class="node"><title>\\SECcurve</title>
<polygon fill="none" stroke="black" points="352,-1978 282,-1978 282,-1942 352,-1942 352,-1978"/>
<text text-anchor="middle" x="317" y="-1957.1" font-family="Times Roman,serif" font-size="11.00">SECcurve</text>
</g>
<!-- \\NISTcurve -->
<g id="node41" class="node"><title>\\NISTcurve</title>
<polygon fill="none" stroke="black" points="353,-1924 281,-1924 281,-1888 353,-1888 353,-1924"/>
<text text-anchor="middle" x="317" y="-1903.1" font-family="Times Roman,serif" font-size="11.00">NISTcurve</text>
</g>
<!-- \\NumberTheory -->
<g id="node42" class="node"><title>\\NumberTheory</title>
<polygon fill="none" stroke="black" points="368,-1870 266,-1870 266,-1834 368,-1834 368,-1870"/>
<text text-anchor="middle" x="317" y="-1849.1" font-family="Times Roman,serif" font-size="11.00">NumberTheory</text>
</g>
<!-- \\Signature -->
<g id="node43" class="node"><title>\\Signature</title>
<polygon fill="none" stroke="black" points="353,-3760 281,-3760 281,-3724 353,-3724 353,-3760"/>
<text text-anchor="middle" x="317" y="-3739.1" font-family="Times Roman,serif" font-size="11.00">Signature</text>
</g>
<!-- \\SignatureInterface -->
<g id="node80" class="node"><title>\\SignatureInterface</title>
<polygon fill="none" stroke="black" points="144,-3760 20,-3760 20,-3724 144,-3724 144,-3760"/>
<text text-anchor="middle" x="82" y="-3739.1" font-family="Times Roman,serif" font-size="11.00">SignatureInterface</text>
</g>
<!-- \\Signature&#45;&gt;\\SignatureInterface -->
<g id="edge37" class="edge"><title>\\Signature&#45;&gt;\\SignatureInterface</title>
<path fill="none" stroke="black" stroke-dasharray="1,5" d="M280.281,-3742C246.77,-3742 196.268,-3742 154.62,-3742"/>
<polygon fill="none" stroke="black" points="154.513,-3738.5 144.513,-3742 154.513,-3745.5 154.513,-3738.5"/>
</g>
<!-- \\PublicKey -->
<g id="node44" class="node"><title>\\PublicKey</title>
<polygon fill="none" stroke="black" points="353,-3706 281,-3706 281,-3670 353,-3670 353,-3706"/>
<text text-anchor="middle" x="317" y="-3685.1" font-family="Times Roman,serif" font-size="11.00">PublicKey</text>
</g>
<!-- \\PublicKeyInterface -->
<g id="node76" class="node"><title>\\PublicKeyInterface</title>
<polygon fill="none" stroke="black" points="144,-3706 20,-3706 20,-3670 144,-3670 144,-3706"/>
<text text-anchor="middle" x="82" y="-3685.1" font-family="Times Roman,serif" font-size="11.00">PublicKeyInterface</text>
</g>
<!-- \\PublicKey&#45;&gt;\\PublicKeyInterface -->
<g id="edge39" class="edge"><title>\\PublicKey&#45;&gt;\\PublicKeyInterface</title>
<path fill="none" stroke="black" stroke-dasharray="1,5" d="M280.796,-3688C247.374,-3688 196.738,-3688 154.936,-3688"/>
<polygon fill="none" stroke="black" points="154.791,-3684.5 144.791,-3688 154.791,-3691.5 154.791,-3684.5"/>
</g>
<!-- \\Electrum -->
<g id="node45" class="node"><title>\\Electrum</title>
<polygon fill="none" stroke="black" points="351,-1708 283,-1708 283,-1672 351,-1672 351,-1708"/>
<text text-anchor="middle" x="317" y="-1687.1" font-family="Times Roman,serif" font-size="11.00">Electrum</text>
</g>
<!-- \\Bw_auth -->
<g id="node46" class="node"><title>\\Bw_auth</title>
<polygon fill="none" stroke="black" points="350,-1654 284,-1654 284,-1618 350,-1618 350,-1654"/>
<text text-anchor="middle" x="317" y="-1633.1" font-family="Times Roman,serif" font-size="11.00">Bw_auth</text>
</g>
<!-- \\GPG -->
<g id="node47" class="node"><title>\\GPG</title>
<polygon fill="none" stroke="black" points="344,-1600 290,-1600 290,-1564 344,-1564 344,-1600"/>
<text text-anchor="middle" x="317" y="-1579.1" font-family="Times Roman,serif" font-size="11.00">GPG</text>
</g>
<!-- \\Bw_bitcoin -->
<g id="node48" class="node"><title>\\Bw_bitcoin</title>
<polygon fill="none" stroke="black" points="357,-1546 277,-1546 277,-1510 357,-1510 357,-1546"/>
<text text-anchor="middle" x="317" y="-1525.1" font-family="Times Roman,serif" font-size="11.00">Bw_bitcoin</text>
</g>
<!-- \\BIP32 -->
<g id="node49" class="node"><title>\\BIP32</title>
<polygon fill="none" stroke="black" points="344,-1492 290,-1492 290,-1456 344,-1456 344,-1492"/>
<text text-anchor="middle" x="317" y="-1471.1" font-family="Times Roman,serif" font-size="11.00">BIP32</text>
</g>
<!-- \\Admin_model -->
<g id="node50" class="node"><title>\\Admin_model</title>
<polygon fill="none" stroke="black" points="363,-196 271,-196 271,-160 363,-160 363,-196"/>
<text text-anchor="middle" x="317" y="-175.1" font-family="Times Roman,serif" font-size="11.00">Admin_model</text>
</g>
<!-- \\CI_Model -->
<g id="node102" class="node"><title>\\CI_Model</title>
<ellipse fill="none" stroke="black" cx="82" cy="-18" rx="59.7599" ry="18"/>
<text text-anchor="middle" x="82" y="-13.9" font-family="Times Roman,serif" font-size="14.00" fill="gray">\CI_Model</text>
</g>
<!-- \\Admin_model&#45;&gt;\\CI_Model -->
<g id="edge41" class="edge"><title>\\Admin_model&#45;&gt;\\CI_Model</title>
<path fill="none" stroke="black" d="M270.16,-168.361C257.922,-164.354 245.292,-158.761 235,-151 189.528,-116.71 208.409,-79.3729 163,-45 156.204,-39.8558 148.375,-35.6603 140.319,-32.2469"/>
<polygon fill="none" stroke="black" points="141.396,-28.9114 130.806,-28.5891 138.884,-35.445 141.396,-28.9114"/>
</g>
<!-- \\Alerts_model -->
<g id="node51" class="node"><title>\\Alerts_model</title>
<polygon fill="none" stroke="black" points="363,-142 271,-142 271,-106 363,-106 363,-142"/>
<text text-anchor="middle" x="317" y="-121.1" font-family="Times Roman,serif" font-size="11.00">Alerts_model</text>
</g>
<!-- \\Alerts_model&#45;&gt;\\CI_Model -->
<g id="edge43" class="edge"><title>\\Alerts_model&#45;&gt;\\CI_Model</title>
<path fill="none" stroke="black" d="M285.233,-105.895C254.56,-88.8504 206.492,-63.2787 163,-45 153.776,-41.1233 143.785,-37.4138 134.072,-34.0529"/>
<polygon fill="none" stroke="black" points="135.086,-30.701 124.491,-30.8149 132.844,-37.3325 135.086,-30.701"/>
</g>
<!-- \\Review_model -->
<g id="node52" class="node"><title>\\Review_model</title>
<polygon fill="none" stroke="black" points="365,-1438 269,-1438 269,-1402 365,-1402 365,-1438"/>
<text text-anchor="middle" x="317" y="-1417.1" font-family="Times Roman,serif" font-size="11.00">Review_model</text>
</g>
<!-- \\Review_model&#45;&gt;\\CI_Model -->
<g id="edge45" class="edge"><title>\\Review_model&#45;&gt;\\CI_Model</title>
<path fill="none" stroke="black" d="M268.189,-1414.05C255.485,-1410.09 243.105,-1403.59 235,-1393 52.7306,-1154.74 344.833,-283.593 163,-45 158.367,-38.9209 152.314,-34.1954 145.602,-30.5247"/>
<polygon fill="none" stroke="black" points="146.657,-27.157 136.111,-26.145 143.724,-33.513 146.657,-27.157"/>
</g>
<!-- \\Bitcoin_model -->
<g id="node53" class="node"><title>\\Bitcoin_model</title>
<polygon fill="none" stroke="black" points="366,-1384 268,-1384 268,-1348 366,-1348 366,-1384"/>
<text text-anchor="middle" x="317" y="-1363.1" font-family="Times Roman,serif" font-size="11.00">Bitcoin_model</text>
</g>
<!-- \\Bitcoin_model&#45;&gt;\\CI_Model -->
<g id="edge47" class="edge"><title>\\Bitcoin_model&#45;&gt;\\CI_Model</title>
<path fill="none" stroke="black" d="M267.776,-1359.9C255.223,-1355.93 243.026,-1349.47 235,-1339 59.7569,-1110.45 337.824,-273.868 163,-45 158.36,-38.9261 152.304,-34.2036 145.589,-30.5346"/>
<polygon fill="none" stroke="black" points="146.643,-27.1662 136.096,-26.1563 143.711,-33.5227 146.643,-27.1662"/>
</g>
<!-- \\Autorun_model -->
<g id="node54" class="node"><title>\\Autorun_model</title>
<polygon fill="none" stroke="black" points="369,-1330 265,-1330 265,-1294 369,-1294 369,-1330"/>
<text text-anchor="middle" x="317" y="-1309.1" font-family="Times Roman,serif" font-size="11.00">Autorun_model</text>
</g>
<!-- \\Autorun_model&#45;&gt;\\CI_Model -->
<g id="edge49" class="edge"><title>\\Autorun_model&#45;&gt;\\CI_Model</title>
<path fill="none" stroke="black" d="M264.805,-1304.89C253.325,-1300.86 242.399,-1294.63 235,-1285 66.7826,-1066.16 330.816,-264.145 163,-45 158.353,-38.9317 152.292,-34.2126 145.575,-30.5453"/>
<polygon fill="none" stroke="black" points="146.627,-27.1763 136.08,-26.1685 143.696,-33.5334 146.627,-27.1763"/>
</g>
<!-- \\Location_model -->
<g id="node55" class="node"><title>\\Location_model</title>
<polygon fill="none" stroke="black" points="370,-1276 264,-1276 264,-1240 370,-1240 370,-1276"/>
<text text-anchor="middle" x="317" y="-1255.1" font-family="Times Roman,serif" font-size="11.00">Location_model</text>
</g>
<!-- \\Location_model&#45;&gt;\\CI_Model -->
<g id="edge51" class="edge"><title>\\Location_model&#45;&gt;\\CI_Model</title>
<path fill="none" stroke="black" d="M263.126,-1250.27C252.271,-1246.23 242.045,-1240.14 235,-1231 73.8074,-1021.87 323.809,-254.423 163,-45 158.345,-38.9378 152.279,-34.2223 145.56,-30.557"/>
<polygon fill="none" stroke="black" points="146.61,-27.1872 136.063,-26.1819 143.681,-33.545 146.61,-27.1872"/>
</g>
<!-- \\Images_model -->
<g id="node56" class="node"><title>\\Images_model</title>
<polygon fill="none" stroke="black" points="366,-1222 268,-1222 268,-1186 366,-1186 366,-1222"/>
<text text-anchor="middle" x="317" y="-1201.1" font-family="Times Roman,serif" font-size="11.00">Images_model</text>
</g>
<!-- \\Images_model&#45;&gt;\\CI_Model -->
<g id="edge53" class="edge"><title>\\Images_model&#45;&gt;\\CI_Model</title>
<path fill="none" stroke="black" d="M267.829,-1197.86C255.277,-1193.89 243.067,-1187.43 235,-1177 80.8313,-977.58 316.803,-244.702 163,-45 158.336,-38.9446 152.265,-34.2331 145.543,-30.5699"/>
<polygon fill="none" stroke="black" points="146.591,-27.1992 136.044,-26.1965 143.663,-33.5577 146.591,-27.1992"/>
</g>
<!-- \\Users_model -->
<g id="node57" class="node"><title>\\Users_model</title>
<polygon fill="none" stroke="black" points="361,-1168 273,-1168 273,-1132 361,-1132 361,-1168"/>
<text text-anchor="middle" x="317" y="-1147.1" font-family="Times Roman,serif" font-size="11.00">Users_model</text>
</g>
<!-- \\Users_model&#45;&gt;\\CI_Model -->
<g id="edge55" class="edge"><title>\\Users_model&#45;&gt;\\CI_Model</title>
<path fill="none" stroke="black" d="M272.137,-1145.1C258.129,-1141.28 244.002,-1134.61 235,-1123 87.8541,-933.287 309.798,-234.982 163,-45 158.327,-38.952 152.25,-34.2449 145.525,-30.584"/>
<polygon fill="none" stroke="black" points="146.57,-27.2125 136.023,-26.2127 143.645,-33.5718 146.57,-27.2125"/>
</g>
<!-- \\Captchas_model -->
<g id="node58" class="node"><title>\\Captchas_model</title>
<polygon fill="none" stroke="black" points="372,-1114 262,-1114 262,-1078 372,-1078 372,-1114"/>
<text text-anchor="middle" x="317" y="-1093.1" font-family="Times Roman,serif" font-size="11.00">Captchas_model</text>
</g>
<!-- \\Captchas_model&#45;&gt;\\CI_Model -->
<g id="edge57" class="edge"><title>\\Captchas_model&#45;&gt;\\CI_Model</title>
<path fill="none" stroke="black" d="M261.084,-1087.4C251.015,-1083.38 241.629,-1077.52 235,-1069 94.8757,-888.992 302.794,-225.264 163,-45 158.316,-38.9602 152.233,-34.258 145.504,-30.5997"/>
<polygon fill="none" stroke="black" points="146.547,-27.2272 136,-26.2306 143.624,-33.5874 146.547,-27.2272"/>
</g>
<!-- \\Messages_model -->
<g id="node59" class="node"><title>\\Messages_model</title>
<polygon fill="none" stroke="black" points="373,-1060 261,-1060 261,-1024 373,-1024 373,-1060"/>
<text text-anchor="middle" x="317" y="-1039.1" font-family="Times Roman,serif" font-size="11.00">Messages_model</text>
</g>
<!-- \\Messages_model&#45;&gt;\\CI_Model -->
<g id="edge59" class="edge"><title>\\Messages_model&#45;&gt;\\CI_Model</title>
<path fill="none" stroke="black" d="M260.272,-1033.04C250.519,-1029.03 241.461,-1023.27 235,-1015 101.896,-844.696 295.792,-215.548 163,-45 158.304,-38.9693 152.214,-34.2726 145.482,-30.6172"/>
<polygon fill="none" stroke="black" points="146.522,-27.2435 135.974,-26.2505 143.601,-33.6047 146.522,-27.2435"/>
</g>
<!-- \\Listings_model -->
<g id="node60" class="node"><title>\\Listings_model</title>
<polygon fill="none" stroke="black" points="368,-1006 266,-1006 266,-970 368,-970 368,-1006"/>
<text text-anchor="middle" x="317" y="-985.1" font-family="Times Roman,serif" font-size="11.00">Listings_model</text>
</g>
<!-- \\Listings_model&#45;&gt;\\CI_Model -->
<g id="edge61" class="edge"><title>\\Listings_model&#45;&gt;\\CI_Model</title>
<path fill="none" stroke="black" d="M265.368,-980.934C253.73,-976.911 242.589,-970.667 235,-961 108.914,-800.397 288.791,-205.834 163,-45 158.291,-38.9795 152.193,-34.2889 145.457,-30.6368"/>
<polygon fill="none" stroke="black" points="146.494,-27.2618 135.945,-26.2728 143.575,-33.6241 146.494,-27.2618"/>
</g>
<!-- \\Transaction_cache_model -->
<g id="node61" class="node"><title>\\Transaction_cache_model</title>
<polygon fill="none" stroke="black" points="398,-952 236,-952 236,-916 398,-916 398,-952"/>
<text text-anchor="middle" x="317" y="-931.1" font-family="Times Roman,serif" font-size="11.00">Transaction_cache_model</text>
</g>
<!-- \\Transaction_cache_model&#45;&gt;\\CI_Model -->
<g id="edge63" class="edge"><title>\\Transaction_cache_model&#45;&gt;\\CI_Model</title>
<path fill="none" stroke="black" d="M243.914,-915.738C240.611,-913.191 237.6,-910.295 235,-907 115.931,-756.096 281.793,-196.122 163,-45 158.277,-38.9911 152.17,-34.3074 145.429,-30.6588"/>
<polygon fill="none" stroke="black" points="146.462,-27.2825 135.913,-26.298 143.546,-33.646 146.462,-27.2825"/>
</g>
<!-- \\Disputes_model -->
<g id="node62" class="node"><title>\\Disputes_model</title>
<polygon fill="none" stroke="black" points="371,-898 263,-898 263,-862 371,-862 371,-898"/>
<text text-anchor="middle" x="317" y="-877.1" font-family="Times Roman,serif" font-size="11.00">Disputes_model</text>
</g>
<!-- \\Disputes_model&#45;&gt;\\CI_Model -->
<g id="edge65" class="edge"><title>\\Disputes_model&#45;&gt;\\CI_Model</title>
<path fill="none" stroke="black" d="M262.469,-871.8C251.919,-867.769 241.987,-861.805 235,-853 122.945,-711.791 274.796,-186.414 163,-45 158.26,-39.0042 152.143,-34.3283 145.397,-30.6839"/>
<polygon fill="none" stroke="black" points="146.426,-27.306 135.877,-26.3265 143.513,-33.671 146.426,-27.306"/>
</g>
<!-- \\Review_auth_model -->
<g id="node63" class="node"><title>\\Review_auth_model</title>
<polygon fill="none" stroke="black" points="382,-844 252,-844 252,-808 382,-808 382,-844"/>
<text text-anchor="middle" x="317" y="-823.1" font-family="Times Roman,serif" font-size="11.00">Review_auth_model</text>
</g>
<!-- \\Review_auth_model&#45;&gt;\\CI_Model -->
<g id="edge67" class="edge"><title>\\Review_auth_model&#45;&gt;\\CI_Model</title>
<path fill="none" stroke="black" d="M251.853,-812.845C245.416,-809.269 239.583,-804.738 235,-799 24.912,-535.967 372.606,-308.418 163,-45 158.068,-38.8017 151.666,-34.0146 144.622,-30.3197"/>
<polygon fill="none" stroke="black" points="145.976,-27.0912 135.418,-26.1995 143.115,-33.4801 145.976,-27.0912"/>
</g>
<!-- \\Order_model -->
<g id="node64" class="node"><title>\\Order_model</title>
<polygon fill="none" stroke="black" points="362,-790 272,-790 272,-754 362,-754 362,-790"/>
<text text-anchor="middle" x="317" y="-769.1" font-family="Times Roman,serif" font-size="11.00">Order_model</text>
</g>
<!-- \\Order_model&#45;&gt;\\CI_Model -->
<g id="edge69" class="edge"><title>\\Order_model&#45;&gt;\\CI_Model</title>
<path fill="none" stroke="black" d="M271.945,-766.799C258.095,-762.946 244.114,-756.326 235,-745 38.927,-501.341 358.626,-289.017 163,-45 158.045,-38.8197 151.63,-34.0432 144.579,-30.3535"/>
<polygon fill="none" stroke="black" points="145.929,-27.123 135.371,-26.2375 143.072,-33.5136 145.929,-27.123"/>
</g>
<!-- \\Accounts_model -->
<g id="node65" class="node"><title>\\Accounts_model</title>
<polygon fill="none" stroke="black" points="372,-736 262,-736 262,-700 372,-700 372,-736"/>
<text text-anchor="middle" x="317" y="-715.1" font-family="Times Roman,serif" font-size="11.00">Accounts_model</text>
</g>
<!-- \\Accounts_model&#45;&gt;\\CI_Model -->
<g id="edge71" class="edge"><title>\\Accounts_model&#45;&gt;\\CI_Model</title>
<path fill="none" stroke="black" d="M261.771,-709.357C251.526,-705.34 241.896,-699.495 235,-691 52.9328,-466.705 344.656,-269.628 163,-45 158.019,-38.8408 151.588,-34.0766 144.53,-30.3932"/>
<polygon fill="none" stroke="black" points="145.874,-27.1603 135.315,-26.282 143.022,-33.5529 145.874,-27.1603"/>
</g>
<!-- \\Config_model -->
<g id="node66" class="node"><title>\\Config_model</title>
<polygon fill="none" stroke="black" points="363,-682 271,-682 271,-646 363,-646 363,-682"/>
<text text-anchor="middle" x="317" y="-661.1" font-family="Times Roman,serif" font-size="11.00">Config_model</text>
</g>
<!-- \\Config_model&#45;&gt;\\CI_Model -->
<g id="edge73" class="edge"><title>\\Config_model&#45;&gt;\\CI_Model</title>
<path fill="none" stroke="black" d="M270.353,-658.209C257.078,-654.288 243.839,-647.778 235,-637 66.9269,-432.054 330.697,-250.254 163,-45 157.988,-38.8659 151.539,-34.1162 144.472,-30.4403"/>
<polygon fill="none" stroke="black" points="145.809,-27.2046 135.25,-26.3349 142.962,-33.5995 145.809,-27.2046"/>
</g>
<!-- \\Auth_model -->
<g id="node67" class="node"><title>\\Auth_model</title>
<polygon fill="none" stroke="black" points="359,-628 275,-628 275,-592 359,-592 359,-628"/>
<text text-anchor="middle" x="317" y="-607.1" font-family="Times Roman,serif" font-size="11.00">Auth_model</text>
</g>
<!-- \\Auth_model&#45;&gt;\\CI_Model -->
<g id="edge75" class="edge"><title>\\Auth_model&#45;&gt;\\CI_Model</title>
<path fill="none" stroke="black" d="M274.281,-605.213C259.766,-601.438 244.765,-594.763 235,-583 80.9059,-397.384 316.754,-230.897 163,-45 157.952,-38.8961 151.481,-34.164 144.403,-30.497"/>
<polygon fill="none" stroke="black" points="145.733,-27.258 135.173,-26.3986 142.892,-33.6557 145.733,-27.258"/>
</g>
<!-- \\Logs_Model -->
<g id="node68" class="node"><title>\\Logs_Model</title>
<polygon fill="none" stroke="black" points="358,-574 276,-574 276,-538 358,-538 358,-574"/>
<text text-anchor="middle" x="317" y="-553.1" font-family="Times Roman,serif" font-size="11.00">Logs_Model</text>
</g>
<!-- \\Logs_Model&#45;&gt;\\CI_Model -->
<g id="edge77" class="edge"><title>\\Logs_Model&#45;&gt;\\CI_Model</title>
<path fill="none" stroke="black" d="M275.227,-551.354C260.461,-547.611 245.044,-540.92 235,-529 94.8646,-362.691 302.831,-211.566 163,-45 157.907,-38.9332 151.411,-34.2228 144.319,-30.5667"/>
<polygon fill="none" stroke="black" points="145.64,-27.3238 135.079,-26.4769 142.807,-33.7248 145.64,-27.3238"/>
</g>
<!-- \\Shipping_costs_model -->
<g id="node69" class="node"><title>\\Shipping_costs_model</title>
<polygon fill="none" stroke="black" points="389,-520 245,-520 245,-484 389,-484 389,-520"/>
<text text-anchor="middle" x="317" y="-499.1" font-family="Times Roman,serif" font-size="11.00">Shipping_costs_model</text>
</g>
<!-- \\Shipping_costs_model&#45;&gt;\\CI_Model -->
<g id="edge79" class="edge"><title>\\Shipping_costs_model&#45;&gt;\\CI_Model</title>
<path fill="none" stroke="black" d="M244.961,-484.003C241.297,-481.395 237.929,-478.412 235,-475 108.795,-327.963 288.935,-192.268 163,-45 157.852,-38.9799 151.324,-34.2966 144.216,-30.6544"/>
<polygon fill="none" stroke="black" points="145.525,-27.4065 134.963,-26.5753 142.701,-33.8118 145.525,-27.4065"/>
</g>
<!-- \\Categories_model -->
<g id="node70" class="node"><title>\\Categories_model</title>
<polygon fill="none" stroke="black" points="376,-466 258,-466 258,-430 376,-430 376,-466"/>
<text text-anchor="middle" x="317" y="-445.1" font-family="Times Roman,serif" font-size="11.00">Categories_model</text>
</g>
<!-- \\Categories_model&#45;&gt;\\CI_Model -->
<g id="edge81" class="edge"><title>\\Categories_model&#45;&gt;\\CI_Model</title>
<path fill="none" stroke="black" d="M257.254,-436.823C248.85,-432.996 241.035,-427.868 235,-421 122.685,-293.189 275.08,-173.016 163,-45 157.782,-39.0403 151.213,-34.3921 144.085,-30.7677"/>
<polygon fill="none" stroke="black" points="145.379,-27.5137 134.816,-26.7027 142.568,-33.9244 145.379,-27.5137"/>
</g>
<!-- \\Fees_model -->
<g id="node71" class="node"><title>\\Fees_model</title>
<polygon fill="none" stroke="black" points="358,-412 276,-412 276,-376 358,-376 358,-412"/>
<text text-anchor="middle" x="317" y="-391.1" font-family="Times Roman,serif" font-size="11.00">Fees_model</text>
</g>
<!-- \\Fees_model&#45;&gt;\\CI_Model -->
<g id="edge83" class="edge"><title>\\Fees_model&#45;&gt;\\CI_Model</title>
<path fill="none" stroke="black" d="M275.251,-388.852C260.667,-385.043 245.368,-378.438 235,-367 136.515,-258.347 261.286,-153.834 163,-45 157.691,-39.1213 151.069,-34.5204 143.914,-30.9199"/>
<polygon fill="none" stroke="black" points="145.189,-27.6579 134.623,-26.8736 142.394,-34.0756 145.189,-27.6579"/>
</g>
<!-- \\Currencies_model -->
<g id="node72" class="node"><title>\\Currencies_model</title>
<polygon fill="none" stroke="black" points="377,-358 257,-358 257,-322 377,-322 377,-358"/>
<text text-anchor="middle" x="317" y="-337.1" font-family="Times Roman,serif" font-size="11.00">Currencies_model</text>
</g>
<!-- \\Currencies_model&#45;&gt;\\CI_Model -->
<g id="edge85" class="edge"><title>\\Currencies_model&#45;&gt;\\CI_Model</title>
<path fill="none" stroke="black" d="M256.854,-328.054C248.708,-324.322 241.077,-319.424 235,-313 150.248,-223.398 247.587,-134.758 163,-45 157.567,-39.2353 150.873,-34.7009 143.681,-31.1342"/>
<polygon fill="none" stroke="black" points="144.931,-27.8615 134.363,-27.1142 142.158,-34.289 144.931,-27.8615"/>
</g>
<!-- \\Items_model -->
<g id="node73" class="node"><title>\\Items_model</title>
<polygon fill="none" stroke="black" points="361,-304 273,-304 273,-268 361,-268 361,-304"/>
<text text-anchor="middle" x="317" y="-283.1" font-family="Times Roman,serif" font-size="11.00">Items_model</text>
</g>
<!-- \\Items_model&#45;&gt;\\CI_Model -->
<g id="edge87" class="edge"><title>\\Items_model&#45;&gt;\\CI_Model</title>
<path fill="none" stroke="black" d="M272.481,-279.303C258.997,-275.341 245.101,-269.036 235,-259 163.813,-188.272 234.057,-115.859 163,-45 157.317,-39.3332 150.415,-34.8556 143.064,-31.3178"/>
<polygon fill="none" stroke="black" points="144.145,-27.9752 133.57,-27.3204 141.428,-34.4267 144.145,-27.9752"/>
</g>
<!-- \\General_model -->
<g id="node74" class="node"><title>\\General_model</title>
<polygon fill="none" stroke="black" points="368,-250 266,-250 266,-214 368,-214 368,-250"/>
<text text-anchor="middle" x="317" y="-229.1" font-family="Times Roman,serif" font-size="11.00">General_model</text>
</g>
<!-- \\General_model&#45;&gt;\\CI_Model -->
<g id="edge89" class="edge"><title>\\General_model&#45;&gt;\\CI_Model</title>
<path fill="none" stroke="black" d="M265.799,-222.338C254.694,-218.384 243.688,-212.822 235,-205 177.049,-152.823 220.856,-97.2831 163,-45 156.901,-39.4888 149.644,-35.0983 142.017,-31.6016"/>
<polygon fill="none" stroke="black" points="143.164,-28.2897 132.582,-27.7644 140.526,-34.774 143.164,-28.2897"/>
</g>
</g>
</svg>
