<?xml version="1.0" encoding="UTF-8" standalone="no"?>
<!DOCTYPE svg PUBLIC "-//W3C//DTD SVG 1.1//EN"
 "http://www.w3.org/Graphics/SVG/1.1/DTD/svg11.dtd">
<!-- Generated by graphviz version 2.26.3 (20100126.1600)
 -->
<!-- Title: G Pages: 1 -->
<svg width="478pt" height="5102pt"
 viewBox="0.00 0.00 478.00 5102.00" xmlns="http://www.w3.org/2000/svg" xmlns:xlink="http://www.w3.org/1999/xlink">
<g id="graph1" class="graph" transform="scale(1 1) rotate(0) translate(4 5098)">
<title>G</title>
<polygon fill="white" stroke="white" points="-4,5 -4,-5098 475,-5098 475,5 -4,5"/>
<g id="graph2" class="cluster"><title>cluster_Global</title>
<polyline fill="none" stroke="gray" points="47,-152 450,-152 "/>
<path fill="none" stroke="gray" d="M450,-152C456,-152 462,-158 462,-164"/>
<polyline fill="none" stroke="gray" points="462,-164 462,-5074 "/>
<path fill="none" stroke="gray" d="M462,-5074C462,-5080 456,-5086 450,-5086"/>
<polyline fill="none" stroke="gray" points="450,-5086 47,-5086 "/>
<path fill="none" stroke="gray" d="M47,-5086C41,-5086 35,-5080 35,-5074"/>
<polyline fill="none" stroke="gray" points="35,-5074 35,-164 "/>
<path fill="none" stroke="gray" d="M35,-164C35,-158 41,-152 47,-152"/>
<text text-anchor="middle" x="248.5" y="-5072.1" font-family="Times Roman,serif" font-size="11.00" fill="gray">Global</text>
</g>
<!-- \\Template -->
<g id="node2" class="node"><title>\\Template</title>
<polygon fill="none" stroke="black" points="406,-5056 338,-5056 338,-5020 406,-5020 406,-5056"/>
<text text-anchor="middle" x="372" y="-5035.1" font-family="Times Roman,serif" font-size="11.00">Template</text>
</g>
<!-- \\Orders -->
<g id="node3" class="node"><title>\\Orders</title>
<polygon fill="none" stroke="black" points="400,-4624 344,-4624 344,-4588 400,-4588 400,-4624"/>
<text text-anchor="middle" x="372" y="-4603.1" font-family="Times Roman,serif" font-size="11.00">Orders</text>
</g>
<!-- \\CI_Controller -->
<g id="node100" class="node"><title>\\CI_Controller</title>
<ellipse fill="none" stroke="black" cx="109" cy="-126" rx="80.1057" ry="18"/>
<text text-anchor="middle" x="109" y="-121.9" font-family="Times Roman,serif" font-size="14.00" fill="gray">\CI_Controller</text>
</g>
<!-- \\Orders&#45;&gt;\\CI_Controller -->
<g id="edge3" class="edge"><title>\\Orders&#45;&gt;\\CI_Controller</title>
<path fill="none" stroke="black" d="M343.609,-4604.7C325.131,-4602.2 302.26,-4595.66 290,-4579 144.064,-4380.72 375.462,-337.261 218,-148 212.498,-141.387 205.608,-136.409 197.981,-132.698"/>
<polygon fill="none" stroke="black" points="199.308,-129.46 188.728,-128.902 196.651,-135.936 199.308,-129.46"/>
</g>
<!-- \\Authorize -->
<g id="node4" class="node"><title>\\Authorize</title>
<polygon fill="none" stroke="black" points="409,-4570 335,-4570 335,-4534 409,-4534 409,-4570"/>
<text text-anchor="middle" x="372" y="-4549.1" font-family="Times Roman,serif" font-size="11.00">Authorize</text>
</g>
<!-- \\Authorize&#45;&gt;\\CI_Controller -->
<g id="edge5" class="edge"><title>\\Authorize&#45;&gt;\\CI_Controller</title>
<path fill="none" stroke="black" d="M334.923,-4549.25C318.417,-4545.98 300.396,-4539.12 290,-4525 145.822,-4329.15 373.563,-334.939 218,-148 212.497,-141.387 205.607,-136.41 197.98,-132.699"/>
<polygon fill="none" stroke="black" points="199.307,-129.461 188.726,-128.903 196.65,-135.937 199.307,-129.461"/>
</g>
<!-- \\Admin -->
<g id="node5" class="node"><title>\\Admin</title>
<polygon fill="none" stroke="black" points="399,-4516 345,-4516 345,-4480 399,-4480 399,-4516"/>
<text text-anchor="middle" x="372" y="-4495.1" font-family="Times Roman,serif" font-size="11.00">Admin</text>
</g>
<!-- \\Admin&#45;&gt;\\CI_Controller -->
<g id="edge7" class="edge"><title>\\Admin&#45;&gt;\\CI_Controller</title>
<path fill="none" stroke="black" d="M344.81,-4496.85C326.133,-4494.48 302.53,-4488.02 290,-4471 147.58,-4277.58 371.663,-332.618 218,-148 212.496,-141.388 205.606,-136.411 197.979,-132.701"/>
<polygon fill="none" stroke="black" points="199.305,-129.462 188.725,-128.904 196.648,-135.938 199.305,-129.462"/>
</g>
<!-- \\Messages -->
<g id="node6" class="node"><title>\\Messages</title>
<polygon fill="none" stroke="black" points="408,-4408 336,-4408 336,-4372 408,-4372 408,-4408"/>
<text text-anchor="middle" x="372" y="-4387.1" font-family="Times Roman,serif" font-size="11.00">Messages</text>
</g>
<!-- \\Messages&#45;&gt;\\CI_Controller -->
<g id="edge9" class="edge"><title>\\Messages&#45;&gt;\\CI_Controller</title>
<path fill="none" stroke="black" d="M335.771,-4387.42C319.041,-4384.2 300.578,-4377.36 290,-4363 151.097,-4174.44 367.863,-327.975 218,-148 212.495,-141.389 205.604,-136.413 197.976,-132.703"/>
<polygon fill="none" stroke="black" points="199.302,-129.464 188.721,-128.907 196.645,-135.94 199.302,-129.464"/>
</g>
<!-- \\Callback -->
<g id="node7" class="node"><title>\\Callback</title>
<polygon fill="none" stroke="black" points="405,-4354 339,-4354 339,-4318 405,-4318 405,-4354"/>
<text text-anchor="middle" x="372" y="-4333.1" font-family="Times Roman,serif" font-size="11.00">Callback</text>
</g>
<!-- \\Callback&#45;&gt;\\CI_Controller -->
<g id="edge11" class="edge"><title>\\Callback&#45;&gt;\\CI_Controller</title>
<path fill="none" stroke="black" d="M338.705,-4333.95C321.242,-4330.98 301.202,-4324.2 290,-4309 152.856,-4122.87 365.964,-325.654 218,-148 212.494,-141.39 205.603,-136.414 197.974,-132.704"/>
<polygon fill="none" stroke="black" points="199.3,-129.465 188.72,-128.909 196.644,-135.942 199.3,-129.465"/>
</g>
<!-- \\Welcome -->
<g id="node8" class="node"><title>\\Welcome</title>
<polygon fill="none" stroke="black" points="406,-4192 338,-4192 338,-4156 406,-4156 406,-4192"/>
<text text-anchor="middle" x="372" y="-4171.1" font-family="Times Roman,serif" font-size="11.00">Welcome</text>
</g>
<!-- \\Welcome&#45;&gt;\\CI_Controller -->
<g id="edge13" class="edge"><title>\\Welcome&#45;&gt;\\CI_Controller</title>
<path fill="none" stroke="black" d="M337.876,-4171.8C320.613,-4168.76 301.03,-4161.96 290,-4147 158.131,-3968.16 360.265,-318.689 218,-148 212.492,-141.392 205.599,-136.417 197.969,-132.708"/>
<polygon fill="none" stroke="black" points="199.294,-129.469 188.714,-128.913 196.639,-135.945 199.294,-129.469"/>
</g>
<!-- \\Listings -->
<g id="node9" class="node"><title>\\Listings</title>
<polygon fill="none" stroke="black" points="403,-2410 341,-2410 341,-2374 403,-2374 403,-2410"/>
<text text-anchor="middle" x="372" y="-2389.1" font-family="Times Roman,serif" font-size="11.00">Listings</text>
</g>
<!-- \\Listings&#45;&gt;\\CI_Controller -->
<g id="edge15" class="edge"><title>\\Listings&#45;&gt;\\CI_Controller</title>
<path fill="none" stroke="black" d="M340.857,-2390.22C322.963,-2387.42 301.766,-2380.72 290,-2365 142.302,-2167.69 377.162,-336.179 218,-148 212.444,-141.432 205.52,-136.483 197.872,-132.79"/>
<polygon fill="none" stroke="black" points="199.181,-129.544 188.6,-129.009 196.538,-136.026 199.181,-129.544"/>
</g>
<!-- \\Bitcoin_Test -->
<g id="node10" class="node"><title>\\Bitcoin_Test</title>
<polygon fill="none" stroke="black" points="415,-2194 329,-2194 329,-2158 415,-2158 415,-2194"/>
<text text-anchor="middle" x="372" y="-2173.1" font-family="Times Roman,serif" font-size="11.00">Bitcoin_Test</text>
</g>
<!-- \\Bitcoin_Test&#45;&gt;\\CI_Controller -->
<g id="edge17" class="edge"><title>\\Bitcoin_Test&#45;&gt;\\CI_Controller</title>
<path fill="none" stroke="black" d="M328.649,-2171.71C314.066,-2167.99 299.183,-2161.22 290,-2149 156.365,-1971.13 361.97,-317.614 218,-148 212.433,-141.441 205.501,-136.499 197.848,-132.81"/>
<polygon fill="none" stroke="black" points="199.154,-129.563 188.572,-129.033 196.514,-136.046 199.154,-129.563"/>
</g>
<!-- \\Users -->
<g id="node11" class="node"><title>\\Users</title>
<polygon fill="none" stroke="black" points="399,-2140 345,-2140 345,-2104 399,-2104 399,-2140"/>
<text text-anchor="middle" x="372" y="-2119.1" font-family="Times Roman,serif" font-size="11.00">Users</text>
</g>
<!-- \\Users&#45;&gt;\\CI_Controller -->
<g id="edge19" class="edge"><title>\\Users&#45;&gt;\\CI_Controller</title>
<path fill="none" stroke="black" d="M344.915,-2120.77C326.288,-2118.36 302.702,-2111.89 290,-2095 159.88,-1921.99 358.172,-312.973 218,-148 212.43,-141.444 205.496,-136.504 197.842,-132.816"/>
<polygon fill="none" stroke="black" points="199.146,-129.568 188.565,-129.039 196.507,-136.051 199.146,-129.568"/>
</g>
<!-- \\Accounts -->
<g id="node12" class="node"><title>\\Accounts</title>
<polygon fill="none" stroke="black" points="406,-2086 338,-2086 338,-2050 406,-2050 406,-2086"/>
<text text-anchor="middle" x="372" y="-2065.1" font-family="Times Roman,serif" font-size="11.00">Accounts</text>
</g>
<!-- \\Accounts&#45;&gt;\\CI_Controller -->
<g id="edge21" class="edge"><title>\\Accounts&#45;&gt;\\CI_Controller</title>
<path fill="none" stroke="black" d="M337.16,-2065.56C320.137,-2062.42 300.998,-2055.61 290,-2041 163.396,-1872.85 354.374,-308.332 218,-148 212.426,-141.447 205.49,-136.509 197.835,-132.822"/>
<polygon fill="none" stroke="black" points="199.138,-129.573 188.556,-129.046 196.5,-136.057 199.138,-129.573"/>
</g>
<!-- \\Image -->
<g id="node13" class="node"><title>\\Image</title>
<polygon fill="none" stroke="black" points="399,-4462 345,-4462 345,-4426 399,-4426 399,-4462"/>
<text text-anchor="middle" x="372" y="-4441.1" font-family="Times Roman,serif" font-size="11.00">Image</text>
</g>
<!-- \\Items -->
<g id="node14" class="node"><title>\\Items</title>
<polygon fill="none" stroke="black" points="399,-1870 345,-1870 345,-1834 399,-1834 399,-1870"/>
<text text-anchor="middle" x="372" y="-1849.1" font-family="Times Roman,serif" font-size="11.00">Items</text>
</g>
<!-- \\Items&#45;&gt;\\CI_Controller -->
<g id="edge23" class="edge"><title>\\Items&#45;&gt;\\CI_Controller</title>
<path fill="none" stroke="black" d="M344.945,-1850.75C326.333,-1848.33 302.753,-1841.85 290,-1825 177.455,-1676.28 339.184,-289.769 218,-148 212.41,-141.461 205.464,-136.531 197.802,-132.85"/>
<polygon fill="none" stroke="black" points="199.1,-129.599 188.518,-129.079 196.466,-136.085 199.1,-129.599"/>
</g>
<!-- \\Reviews -->
<g id="node15" class="node"><title>\\Reviews</title>
<polygon fill="none" stroke="black" points="403,-4678 341,-4678 341,-4642 403,-4642 403,-4678"/>
<text text-anchor="middle" x="372" y="-4657.1" font-family="Times Roman,serif" font-size="11.00">Reviews</text>
</g>
<!-- \\Reviews&#45;&gt;\\CI_Controller -->
<g id="edge25" class="edge"><title>\\Reviews&#45;&gt;\\CI_Controller</title>
<path fill="none" stroke="black" d="M340.764,-4658.29C322.836,-4655.51 301.637,-4648.81 290,-4633 142.305,-4432.29 377.362,-339.582 218,-148 212.498,-141.386 205.609,-136.408 197.983,-132.697"/>
<polygon fill="none" stroke="black" points="199.31,-129.459 188.73,-128.9 196.652,-135.935 199.31,-129.459"/>
</g>
<!-- \\Bw_captcha -->
<g id="node16" class="node"><title>\\Bw_captcha</title>
<polygon fill="none" stroke="black" points="415,-4300 329,-4300 329,-4264 415,-4264 415,-4300"/>
<text text-anchor="middle" x="372" y="-4279.1" font-family="Times Roman,serif" font-size="11.00">Bw_captcha</text>
</g>
<!-- \\Bw_session -->
<g id="node17" class="node"><title>\\Bw_session</title>
<polygon fill="none" stroke="black" points="413,-4246 331,-4246 331,-4210 413,-4210 413,-4246"/>
<text text-anchor="middle" x="372" y="-4225.1" font-family="Times Roman,serif" font-size="11.00">Bw_session</text>
</g>
<!-- \\MY_Form_validation -->
<g id="node18" class="node"><title>\\MY_Form_validation</title>
<polygon fill="none" stroke="black" points="438,-1816 306,-1816 306,-1780 438,-1780 438,-1816"/>
<text text-anchor="middle" x="372" y="-1795.1" font-family="Times Roman,serif" font-size="11.00">MY_Form_validation</text>
</g>
<!-- \\CI_Form_validation -->
<g id="node113" class="node"><title>\\CI_Form_validation</title>
<ellipse fill="none" stroke="black" cx="109" cy="-72" rx="109.097" ry="18"/>
<text text-anchor="middle" x="109" y="-67.9" font-family="Times Roman,serif" font-size="14.00" fill="gray">\CI_Form_validation</text>
</g>
<!-- \\MY_Form_validation&#45;&gt;\\CI_Form_validation -->
<g id="edge27" class="edge"><title>\\MY_Form_validation&#45;&gt;\\CI_Form_validation</title>
<path fill="none" stroke="black" d="M305.777,-1784.63C299.705,-1781.08 294.251,-1776.62 290,-1771 177.781,-1622.73 335.718,-242.944 218,-99 214.54,-94.7697 210.532,-91.142 206.135,-88.0358"/>
<polygon fill="none" stroke="black" points="207.618,-84.8433 197.246,-82.6838 204.008,-90.8403 207.618,-84.8433"/>
</g>
<!-- \\Current_User -->
<g id="node19" class="node"><title>\\Current_User</title>
<polygon fill="none" stroke="black" points="419,-4138 325,-4138 325,-4102 419,-4102 419,-4138"/>
<text text-anchor="middle" x="372" y="-4117.1" font-family="Times Roman,serif" font-size="11.00">Current_User</text>
</g>
<!-- \\Bw_Transaction -->
<g id="node20" class="node"><title>\\Bw_Transaction</title>
<polygon fill="none" stroke="black" points="425,-4084 319,-4084 319,-4048 425,-4048 425,-4084"/>
<text text-anchor="middle" x="372" y="-4063.1" font-family="Times Roman,serif" font-size="11.00">Bw_Transaction</text>
</g>
<!-- \\QRrsItem -->
<g id="node21" class="node"><title>\\QRrsItem</title>
<polygon fill="none" stroke="black" points="407,-4030 337,-4030 337,-3994 407,-3994 407,-4030"/>
<text text-anchor="middle" x="372" y="-4009.1" font-family="Times Roman,serif" font-size="11.00">QRrsItem</text>
</g>
<!-- \\QRrs -->
<g id="node22" class="node"><title>\\QRrs</title>
<polygon fill="none" stroke="black" points="399,-3976 345,-3976 345,-3940 399,-3940 399,-3976"/>
<text text-anchor="middle" x="372" y="-3955.1" font-family="Times Roman,serif" font-size="11.00">QRrs</text>
</g>
<!-- \\QRimage -->
<g id="node23" class="node"><title>\\QRimage</title>
<polygon fill="none" stroke="black" points="406,-3922 338,-3922 338,-3886 406,-3886 406,-3922"/>
<text text-anchor="middle" x="372" y="-3901.1" font-family="Times Roman,serif" font-size="11.00">QRimage</text>
</g>
<!-- \\QRbitstream -->
<g id="node24" class="node"><title>\\QRbitstream</title>
<polygon fill="none" stroke="black" points="417,-3868 327,-3868 327,-3832 417,-3832 417,-3868"/>
<text text-anchor="middle" x="372" y="-3847.1" font-family="Times Roman,serif" font-size="11.00">QRbitstream</text>
</g>
<!-- \\QRrsblock -->
<g id="node25" class="node"><title>\\QRrsblock</title>
<polygon fill="none" stroke="black" points="409,-3814 335,-3814 335,-3778 409,-3778 409,-3814"/>
<text text-anchor="middle" x="372" y="-3793.1" font-family="Times Roman,serif" font-size="11.00">QRrsblock</text>
</g>
<!-- \\QRrawcode -->
<g id="node26" class="node"><title>\\QRrawcode</title>
<polygon fill="none" stroke="black" points="412,-3760 332,-3760 332,-3724 412,-3724 412,-3760"/>
<text text-anchor="middle" x="372" y="-3739.1" font-family="Times Roman,serif" font-size="11.00">QRrawcode</text>
</g>
<!-- \\QRcode -->
<g id="node27" class="node"><title>\\QRcode</title>
<polygon fill="none" stroke="black" points="401,-3706 343,-3706 343,-3670 401,-3670 401,-3706"/>
<text text-anchor="middle" x="372" y="-3685.1" font-family="Times Roman,serif" font-size="11.00">QRcode</text>
</g>
<!-- \\FrameFiller -->
<g id="node28" class="node"><title>\\FrameFiller</title>
<polygon fill="none" stroke="black" points="412,-3652 332,-3652 332,-3616 412,-3616 412,-3652"/>
<text text-anchor="middle" x="372" y="-3631.1" font-family="Times Roman,serif" font-size="11.00">FrameFiller</text>
</g>
<!-- \\QRencode -->
<g id="node29" class="node"><title>\\QRencode</title>
<polygon fill="none" stroke="black" points="408,-3598 336,-3598 336,-3562 408,-3562 408,-3598"/>
<text text-anchor="middle" x="372" y="-3577.1" font-family="Times Roman,serif" font-size="11.00">QRencode</text>
</g>
<!-- \\qrstr -->
<g id="node30" class="node"><title>\\qrstr</title>
<polygon fill="none" stroke="black" points="399,-3544 345,-3544 345,-3508 399,-3508 399,-3544"/>
<text text-anchor="middle" x="372" y="-3523.1" font-family="Times Roman,serif" font-size="11.00">qrstr</text>
</g>
<!-- \\QRtools -->
<g id="node31" class="node"><title>\\QRtools</title>
<polygon fill="none" stroke="black" points="403,-3490 341,-3490 341,-3454 403,-3454 403,-3490"/>
<text text-anchor="middle" x="372" y="-3469.1" font-family="Times Roman,serif" font-size="11.00">QRtools</text>
</g>
<!-- \\QRspec -->
<g id="node32" class="node"><title>\\QRspec</title>
<polygon fill="none" stroke="black" points="401,-3436 343,-3436 343,-3400 401,-3400 401,-3436"/>
<text text-anchor="middle" x="372" y="-3415.1" font-family="Times Roman,serif" font-size="11.00">QRspec</text>
</g>
<!-- \\QRinputItem -->
<g id="node33" class="node"><title>\\QRinputItem</title>
<polygon fill="none" stroke="black" points="417,-3382 327,-3382 327,-3346 417,-3346 417,-3382"/>
<text text-anchor="middle" x="372" y="-3361.1" font-family="Times Roman,serif" font-size="11.00">QRinputItem</text>
</g>
<!-- \\QRinput -->
<g id="node34" class="node"><title>\\QRinput</title>
<polygon fill="none" stroke="black" points="404,-3328 340,-3328 340,-3292 404,-3292 404,-3328"/>
<text text-anchor="middle" x="372" y="-3307.1" font-family="Times Roman,serif" font-size="11.00">QRinput</text>
</g>
<!-- \\QRsplit -->
<g id="node35" class="node"><title>\\QRsplit</title>
<polygon fill="none" stroke="black" points="401,-3274 343,-3274 343,-3238 401,-3238 401,-3274"/>
<text text-anchor="middle" x="372" y="-3253.1" font-family="Times Roman,serif" font-size="11.00">QRsplit</text>
</g>
<!-- \\QRmask -->
<g id="node36" class="node"><title>\\QRmask</title>
<polygon fill="none" stroke="black" points="403,-3220 341,-3220 341,-3184 403,-3184 403,-3220"/>
<text text-anchor="middle" x="372" y="-3199.1" font-family="Times Roman,serif" font-size="11.00">QRmask</text>
</g>
<!-- \\Price_Index -->
<g id="node37" class="node"><title>\\Price_Index</title>
<polygon fill="none" stroke="black" points="413,-3166 331,-3166 331,-3130 413,-3130 413,-3166"/>
<text text-anchor="middle" x="372" y="-3145.1" font-family="Times Roman,serif" font-size="11.00">Price_Index</text>
</g>
<!-- \\Version_Checker -->
<g id="node38" class="node"><title>\\Version_Checker</title>
<polygon fill="none" stroke="black" points="428,-3112 316,-3112 316,-3076 428,-3076 428,-3112"/>
<text text-anchor="middle" x="372" y="-3091.1" font-family="Times Roman,serif" font-size="11.00">Version_Checker</text>
</g>
<!-- \\Bw_config -->
<g id="node39" class="node"><title>\\Bw_config</title>
<polygon fill="none" stroke="black" points="409,-3058 335,-3058 335,-3022 409,-3022 409,-3058"/>
<text text-anchor="middle" x="372" y="-3037.1" font-family="Times Roman,serif" font-size="11.00">Bw_config</text>
</g>
<!-- \\Jsonrpcclient -->
<g id="node40" class="node"><title>\\Jsonrpcclient</title>
<polygon fill="none" stroke="black" points="418,-3004 326,-3004 326,-2968 418,-2968 418,-3004"/>
<text text-anchor="middle" x="372" y="-2983.1" font-family="Times Roman,serif" font-size="11.00">Jsonrpcclient</text>
</g>
<!-- \\Raw_transaction -->
<g id="node41" class="node"><title>\\Raw_transaction</title>
<polygon fill="none" stroke="black" points="428,-2950 316,-2950 316,-2914 428,-2914 428,-2950"/>
<text text-anchor="middle" x="372" y="-2929.1" font-family="Times Roman,serif" font-size="11.00">Raw_transaction</text>
</g>
<!-- \\General -->
<g id="node42" class="node"><title>\\General</title>
<polygon fill="none" stroke="black" points="403,-2896 341,-2896 341,-2860 403,-2860 403,-2896"/>
<text text-anchor="middle" x="372" y="-2875.1" font-family="Times Roman,serif" font-size="11.00">General</text>
</g>
<!-- \\Openssl -->
<g id="node43" class="node"><title>\\Openssl</title>
<polygon fill="none" stroke="black" points="403,-2842 341,-2842 341,-2806 403,-2806 403,-2842"/>
<text text-anchor="middle" x="372" y="-2821.1" font-family="Times Roman,serif" font-size="11.00">Openssl</text>
</g>
<!-- \\BitcoinLib -->
<g id="node44" class="node"><title>\\BitcoinLib</title>
<polygon fill="none" stroke="black" points="410,-2788 334,-2788 334,-2752 410,-2752 410,-2788"/>
<text text-anchor="middle" x="372" y="-2767.1" font-family="Times Roman,serif" font-size="11.00">BitcoinLib</text>
</g>
<!-- \\Ciqrcode -->
<g id="node45" class="node"><title>\\Ciqrcode</title>
<polygon fill="none" stroke="black" points="405,-2734 339,-2734 339,-2698 405,-2698 405,-2734"/>
<text text-anchor="middle" x="372" y="-2713.1" font-family="Times Roman,serif" font-size="11.00">Ciqrcode</text>
</g>
<!-- \\Layout -->
<g id="node46" class="node"><title>\\Layout</title>
<polygon fill="none" stroke="black" points="400,-2680 344,-2680 344,-2644 400,-2644 400,-2680"/>
<text text-anchor="middle" x="372" y="-2659.1" font-family="Times Roman,serif" font-size="11.00">Layout</text>
</g>
<!-- \\Bw_messages -->
<g id="node47" class="node"><title>\\Bw_messages</title>
<polygon fill="none" stroke="black" points="419,-2626 325,-2626 325,-2590 419,-2590 419,-2626"/>
<text text-anchor="middle" x="372" y="-2605.1" font-family="Times Roman,serif" font-size="11.00">Bw_messages</text>
</g>
<!-- \\TOTP -->
<g id="node48" class="node"><title>\\TOTP</title>
<polygon fill="none" stroke="black" points="399,-2572 345,-2572 345,-2536 399,-2536 399,-2572"/>
<text text-anchor="middle" x="372" y="-2551.1" font-family="Times Roman,serif" font-size="11.00">TOTP</text>
</g>
<!-- \\Bw_curl -->
<g id="node49" class="node"><title>\\Bw_curl</title>
<polygon fill="none" stroke="black" points="403,-2518 341,-2518 341,-2482 403,-2482 403,-2518"/>
<text text-anchor="middle" x="372" y="-2497.1" font-family="Times Roman,serif" font-size="11.00">Bw_curl</text>
</g>
<!-- \\Autorun -->
<g id="node50" class="node"><title>\\Autorun</title>
<polygon fill="none" stroke="black" points="404,-2464 340,-2464 340,-2428 404,-2428 404,-2464"/>
<text text-anchor="middle" x="372" y="-2443.1" font-family="Times Roman,serif" font-size="11.00">Autorun</text>
</g>
<!-- \\PrivateKey -->
<g id="node51" class="node"><title>\\PrivateKey</title>
<polygon fill="none" stroke="black" points="411,-5002 333,-5002 333,-4966 411,-4966 411,-5002"/>
<text text-anchor="middle" x="372" y="-4981.1" font-family="Times Roman,serif" font-size="11.00">PrivateKey</text>
</g>
<!-- \\PrivateKeyInterface -->
<g id="node95" class="node"><title>\\PrivateKeyInterface</title>
<polygon fill="none" stroke="black" points="174,-5002 44,-5002 44,-4966 174,-4966 174,-5002"/>
<text text-anchor="middle" x="109" y="-4981.1" font-family="Times Roman,serif" font-size="11.00">PrivateKeyInterface</text>
</g>
<!-- \\PrivateKey&#45;&gt;\\PrivateKeyInterface -->
<g id="edge29" class="edge"><title>\\PrivateKey&#45;&gt;\\PrivateKeyInterface</title>
<path fill="none" stroke="black" stroke-dasharray="1,5" d="M332.91,-4984C293.969,-4984 233.164,-4984 184.741,-4984"/>
<polygon fill="none" stroke="black" points="184.608,-4980.5 174.608,-4984 184.608,-4987.5 184.608,-4980.5"/>
</g>
<!-- \\TestSuite -->
<g id="node52" class="node"><title>\\TestSuite</title>
<polygon fill="none" stroke="black" points="406,-2356 338,-2356 338,-2320 406,-2320 406,-2356"/>
<text text-anchor="middle" x="372" y="-2335.1" font-family="Times Roman,serif" font-size="11.00">TestSuite</text>
</g>
<!-- \\gmp_Utils -->
<g id="node53" class="node"><title>\\gmp_Utils</title>
<polygon fill="none" stroke="black" points="409,-2302 335,-2302 335,-2266 409,-2266 409,-2302"/>
<text text-anchor="middle" x="372" y="-2281.1" font-family="Times Roman,serif" font-size="11.00">gmp_Utils</text>
</g>
<!-- \\bcmath_Utils -->
<g id="node54" class="node"><title>\\bcmath_Utils</title>
<polygon fill="none" stroke="black" points="418,-2248 326,-2248 326,-2212 418,-2212 418,-2248"/>
<text text-anchor="middle" x="372" y="-2227.1" font-family="Times Roman,serif" font-size="11.00">bcmath_Utils</text>
</g>
<!-- \\EcDH -->
<g id="node55" class="node"><title>\\EcDH</title>
<polygon fill="none" stroke="black" points="399,-4948 345,-4948 345,-4912 399,-4912 399,-4948"/>
<text text-anchor="middle" x="372" y="-4927.1" font-family="Times Roman,serif" font-size="11.00">EcDH</text>
</g>
<!-- \\EcDHInterface -->
<g id="node97" class="node"><title>\\EcDHInterface</title>
<polygon fill="none" stroke="black" points="159,-4948 59,-4948 59,-4912 159,-4912 159,-4948"/>
<text text-anchor="middle" x="109" y="-4927.1" font-family="Times Roman,serif" font-size="11.00">EcDHInterface</text>
</g>
<!-- \\EcDH&#45;&gt;\\EcDHInterface -->
<g id="edge31" class="edge"><title>\\EcDH&#45;&gt;\\EcDHInterface</title>
<path fill="none" stroke="black" stroke-dasharray="1,5" d="M344.845,-4930C303.826,-4930 225.001,-4930 169.812,-4930"/>
<polygon fill="none" stroke="black" points="169.797,-4926.5 159.797,-4930 169.797,-4933.5 169.797,-4926.5"/>
</g>
<!-- \\CurveFp -->
<g id="node56" class="node"><title>\\CurveFp</title>
<polygon fill="none" stroke="black" points="404,-4894 340,-4894 340,-4858 404,-4858 404,-4894"/>
<text text-anchor="middle" x="372" y="-4873.1" font-family="Times Roman,serif" font-size="11.00">CurveFp</text>
</g>
<!-- \\CurveFpInterface -->
<g id="node93" class="node"><title>\\CurveFpInterface</title>
<polygon fill="none" stroke="black" points="168,-4894 50,-4894 50,-4858 168,-4858 168,-4894"/>
<text text-anchor="middle" x="109" y="-4873.1" font-family="Times Roman,serif" font-size="11.00">CurveFpInterface</text>
</g>
<!-- \\CurveFp&#45;&gt;\\CurveFpInterface -->
<g id="edge33" class="edge"><title>\\CurveFp&#45;&gt;\\CurveFpInterface</title>
<path fill="none" stroke="black" stroke-dasharray="1,5" d="M339.487,-4876C299.481,-4876 230.463,-4876 178.353,-4876"/>
<polygon fill="none" stroke="black" points="178.17,-4872.5 168.17,-4876 178.17,-4879.5 178.17,-4872.5"/>
</g>
<!-- \\Point -->
<g id="node57" class="node"><title>\\Point</title>
<polygon fill="none" stroke="black" points="399,-4840 345,-4840 345,-4804 399,-4804 399,-4840"/>
<text text-anchor="middle" x="372" y="-4819.1" font-family="Times Roman,serif" font-size="11.00">Point</text>
</g>
<!-- \\PointInterface -->
<g id="node96" class="node"><title>\\PointInterface</title>
<polygon fill="none" stroke="black" points="158,-4840 60,-4840 60,-4804 158,-4804 158,-4840"/>
<text text-anchor="middle" x="109" y="-4819.1" font-family="Times Roman,serif" font-size="11.00">PointInterface</text>
</g>
<!-- \\Point&#45;&gt;\\PointInterface -->
<g id="edge35" class="edge"><title>\\Point&#45;&gt;\\PointInterface</title>
<path fill="none" stroke="black" stroke-dasharray="1,5" d="M344.845,-4822C303.455,-4822 223.573,-4822 168.322,-4822"/>
<polygon fill="none" stroke="black" points="168.307,-4818.5 158.307,-4822 168.307,-4825.5 168.307,-4818.5"/>
</g>
<!-- \\SECcurve -->
<g id="node58" class="node"><title>\\SECcurve</title>
<polygon fill="none" stroke="black" points="407,-2032 337,-2032 337,-1996 407,-1996 407,-2032"/>
<text text-anchor="middle" x="372" y="-2011.1" font-family="Times Roman,serif" font-size="11.00">SECcurve</text>
</g>
<!-- \\NISTcurve -->
<g id="node59" class="node"><title>\\NISTcurve</title>
<polygon fill="none" stroke="black" points="408,-1978 336,-1978 336,-1942 408,-1942 408,-1978"/>
<text text-anchor="middle" x="372" y="-1957.1" font-family="Times Roman,serif" font-size="11.00">NISTcurve</text>
</g>
<!-- \\NumberTheory -->
<g id="node60" class="node"><title>\\NumberTheory</title>
<polygon fill="none" stroke="black" points="423,-1924 321,-1924 321,-1888 423,-1888 423,-1924"/>
<text text-anchor="middle" x="372" y="-1903.1" font-family="Times Roman,serif" font-size="11.00">NumberTheory</text>
</g>
<!-- \\Signature -->
<g id="node61" class="node"><title>\\Signature</title>
<polygon fill="none" stroke="black" points="408,-4786 336,-4786 336,-4750 408,-4750 408,-4786"/>
<text text-anchor="middle" x="372" y="-4765.1" font-family="Times Roman,serif" font-size="11.00">Signature</text>
</g>
<!-- \\SignatureInterface -->
<g id="node98" class="node"><title>\\SignatureInterface</title>
<polygon fill="none" stroke="black" points="171,-4786 47,-4786 47,-4750 171,-4750 171,-4786"/>
<text text-anchor="middle" x="109" y="-4765.1" font-family="Times Roman,serif" font-size="11.00">SignatureInterface</text>
</g>
<!-- \\Signature&#45;&gt;\\SignatureInterface -->
<g id="edge37" class="edge"><title>\\Signature&#45;&gt;\\SignatureInterface</title>
<path fill="none" stroke="black" stroke-dasharray="1,5" d="M335.431,-4768C295.817,-4768 231.593,-4768 181.643,-4768"/>
<polygon fill="none" stroke="black" points="181.536,-4764.5 171.536,-4768 181.536,-4771.5 181.536,-4764.5"/>
</g>
<!-- \\PublicKey -->
<g id="node62" class="node"><title>\\PublicKey</title>
<polygon fill="none" stroke="black" points="408,-4732 336,-4732 336,-4696 408,-4696 408,-4732"/>
<text text-anchor="middle" x="372" y="-4711.1" font-family="Times Roman,serif" font-size="11.00">PublicKey</text>
</g>
<!-- \\PublicKeyInterface -->
<g id="node94" class="node"><title>\\PublicKeyInterface</title>
<polygon fill="none" stroke="black" points="171,-4732 47,-4732 47,-4696 171,-4696 171,-4732"/>
<text text-anchor="middle" x="109" y="-4711.1" font-family="Times Roman,serif" font-size="11.00">PublicKeyInterface</text>
</g>
<!-- \\PublicKey&#45;&gt;\\PublicKeyInterface -->
<g id="edge39" class="edge"><title>\\PublicKey&#45;&gt;\\PublicKeyInterface</title>
<path fill="none" stroke="black" stroke-dasharray="1,5" d="M335.982,-4714C296.432,-4714 231.881,-4714 181.708,-4714"/>
<polygon fill="none" stroke="black" points="181.556,-4710.5 171.556,-4714 181.556,-4717.5 181.556,-4710.5"/>
</g>
<!-- \\Electrum -->
<g id="node63" class="node"><title>\\Electrum</title>
<polygon fill="none" stroke="black" points="406,-1762 338,-1762 338,-1726 406,-1726 406,-1762"/>
<text text-anchor="middle" x="372" y="-1741.1" font-family="Times Roman,serif" font-size="11.00">Electrum</text>
</g>
<!-- \\Bw_auth -->
<g id="node64" class="node"><title>\\Bw_auth</title>
<polygon fill="none" stroke="black" points="405,-1708 339,-1708 339,-1672 405,-1672 405,-1708"/>
<text text-anchor="middle" x="372" y="-1687.1" font-family="Times Roman,serif" font-size="11.00">Bw_auth</text>
</g>
<!-- \\GPG -->
<g id="node65" class="node"><title>\\GPG</title>
<polygon fill="none" stroke="black" points="399,-1654 345,-1654 345,-1618 399,-1618 399,-1654"/>
<text text-anchor="middle" x="372" y="-1633.1" font-family="Times Roman,serif" font-size="11.00">GPG</text>
</g>
<!-- \\Bw_bitcoin -->
<g id="node66" class="node"><title>\\Bw_bitcoin</title>
<polygon fill="none" stroke="black" points="412,-1600 332,-1600 332,-1564 412,-1564 412,-1600"/>
<text text-anchor="middle" x="372" y="-1579.1" font-family="Times Roman,serif" font-size="11.00">Bw_bitcoin</text>
</g>
<!-- \\BIP32 -->
<g id="node67" class="node"><title>\\BIP32</title>
<polygon fill="none" stroke="black" points="399,-1546 345,-1546 345,-1510 399,-1510 399,-1546"/>
<text text-anchor="middle" x="372" y="-1525.1" font-family="Times Roman,serif" font-size="11.00">BIP32</text>
</g>
<!-- \\Admin_model -->
<g id="node68" class="node"><title>\\Admin_model</title>
<polygon fill="none" stroke="black" points="418,-466 326,-466 326,-430 418,-430 418,-466"/>
<text text-anchor="middle" x="372" y="-445.1" font-family="Times Roman,serif" font-size="11.00">Admin_model</text>
</g>
<!-- \\CI_Model -->
<g id="node121" class="node"><title>\\CI_Model</title>
<ellipse fill="none" stroke="black" cx="109" cy="-18" rx="59.7599" ry="18"/>
<text text-anchor="middle" x="109" y="-13.9" font-family="Times Roman,serif" font-size="14.00" fill="gray">\CI_Model</text>
</g>
<!-- \\Admin_model&#45;&gt;\\CI_Model -->
<g id="edge41" class="edge"><title>\\Admin_model&#45;&gt;\\CI_Model</title>
<path fill="none" stroke="black" d="M325.366,-441.708C312.252,-437.758 299.102,-431.358 290,-421 177.685,-293.189 335.044,-168.494 218,-45 207.439,-33.8569 193.061,-27.0144 178.214,-22.8812"/>
<polygon fill="none" stroke="black" points="178.964,-19.4621 168.424,-20.5383 177.335,-26.2698 178.964,-19.4621"/>
</g>
<!-- \\Disputes_model -->
<g id="node69" class="node"><title>\\Disputes_model</title>
<polygon fill="none" stroke="black" points="426,-412 318,-412 318,-376 426,-376 426,-412"/>
<text text-anchor="middle" x="372" y="-391.1" font-family="Times Roman,serif" font-size="11.00">Disputes_model</text>
</g>
<!-- \\Disputes_model&#45;&gt;\\CI_Model -->
<g id="edge43" class="edge"><title>\\Disputes_model&#45;&gt;\\CI_Model</title>
<path fill="none" stroke="black" d="M317.465,-384.762C307.173,-380.785 297.348,-375.107 290,-367 191.515,-258.347 320.503,-149.871 218,-45 207.325,-34.0779 192.975,-27.3121 178.201,-23.1815"/>
<polygon fill="none" stroke="black" points="179.007,-19.7756 168.465,-20.8305 177.364,-26.58 179.007,-19.7756"/>
</g>
<!-- \\Transaction_cache_model -->
<g id="node70" class="node"><title>\\Transaction_cache_model</title>
<polygon fill="none" stroke="black" points="453,-358 291,-358 291,-322 453,-322 453,-358"/>
<text text-anchor="middle" x="372" y="-337.1" font-family="Times Roman,serif" font-size="11.00">Transaction_cache_model</text>
</g>
<!-- \\Transaction_cache_model&#45;&gt;\\CI_Model -->
<g id="edge45" class="edge"><title>\\Transaction_cache_model&#45;&gt;\\CI_Model</title>
<path fill="none" stroke="black" d="M300.715,-321.914C296.815,-319.329 293.193,-316.376 290,-313 205.248,-223.398 306.063,-131.35 218,-45 207.095,-34.3071 192.657,-27.6301 177.869,-23.5126"/>
<polygon fill="none" stroke="black" points="178.677,-20.1072 168.135,-21.1599 177.033,-26.9113 178.677,-20.1072"/>
</g>
<!-- \\Currencies_model -->
<g id="node71" class="node"><title>\\Currencies_model</title>
<polygon fill="none" stroke="black" points="432,-304 312,-304 312,-268 432,-268 432,-304"/>
<text text-anchor="middle" x="372" y="-283.1" font-family="Times Roman,serif" font-size="11.00">Currencies_model</text>
</g>
<!-- \\Currencies_model&#45;&gt;\\CI_Model -->
<g id="edge47" class="edge"><title>\\Currencies_model&#45;&gt;\\CI_Model</title>
<path fill="none" stroke="black" d="M311.787,-273.525C303.748,-269.864 296.167,-265.127 290,-259 218.813,-188.272 291.798,-113 218,-45 206.934,-34.803 192.631,-28.3005 178.05,-24.1916"/>
<polygon fill="none" stroke="black" points="178.494,-20.6966 167.948,-21.7134 176.826,-27.4951 178.494,-20.6966"/>
</g>
<!-- \\Autorun_model -->
<g id="node72" class="node"><title>\\Autorun_model</title>
<polygon fill="none" stroke="black" points="424,-250 320,-250 320,-214 424,-214 424,-250"/>
<text text-anchor="middle" x="372" y="-229.1" font-family="Times Roman,serif" font-size="11.00">Autorun_model</text>
</g>
<!-- \\Autorun_model&#45;&gt;\\CI_Model -->
<g id="edge49" class="edge"><title>\\Autorun_model&#45;&gt;\\CI_Model</title>
<path fill="none" stroke="black" d="M319.945,-222.03C309.131,-218.098 298.465,-212.622 290,-205 232.049,-152.823 277.873,-94.9597 218,-45 206.446,-35.359 191.95,-29.0772 177.337,-25.0054"/>
<polygon fill="none" stroke="black" points="177.782,-21.5108 167.236,-22.5254 176.113,-28.3089 177.782,-21.5108"/>
</g>
<!-- \\Listings_model -->
<g id="node73" class="node"><title>\\Listings_model</title>
<polygon fill="none" stroke="black" points="423,-1492 321,-1492 321,-1456 423,-1456 423,-1492"/>
<text text-anchor="middle" x="372" y="-1471.1" font-family="Times Roman,serif" font-size="11.00">Listings_model</text>
</g>
<!-- \\Listings_model&#45;&gt;\\CI_Model -->
<g id="edge51" class="edge"><title>\\Listings_model&#45;&gt;\\CI_Model</title>
<path fill="none" stroke="black" d="M320.185,-1467.08C308.551,-1463.05 297.457,-1456.77 290,-1447 100.704,-1199.03 416.492,-285.673 218,-45 208.13,-33.0324 193.865,-25.8959 178.891,-21.7435"/>
<polygon fill="none" stroke="black" points="179.522,-18.2967 168.987,-19.4249 177.926,-25.1124 179.522,-18.2967"/>
</g>
<!-- \\Images_model -->
<g id="node74" class="node"><title>\\Images_model</title>
<polygon fill="none" stroke="black" points="421,-1438 323,-1438 323,-1402 421,-1402 421,-1438"/>
<text text-anchor="middle" x="372" y="-1417.1" font-family="Times Roman,serif" font-size="11.00">Images_model</text>
</g>
<!-- \\Images_model&#45;&gt;\\CI_Model -->
<g id="edge53" class="edge"><title>\\Images_model&#45;&gt;\\CI_Model</title>
<path fill="none" stroke="black" d="M322.761,-1413.91C310.208,-1409.94 298.014,-1403.48 290,-1393 107.731,-1154.74 409.105,-276.232 218,-45 208.118,-33.0425 193.848,-25.9099 178.873,-21.7579"/>
<polygon fill="none" stroke="black" points="179.505,-18.3111 168.97,-19.4392 177.909,-25.1268 179.505,-18.3111"/>
</g>
<!-- \\Accounts_model -->
<g id="node75" class="node"><title>\\Accounts_model</title>
<polygon fill="none" stroke="black" points="427,-1384 317,-1384 317,-1348 427,-1348 427,-1384"/>
<text text-anchor="middle" x="372" y="-1363.1" font-family="Times Roman,serif" font-size="11.00">Accounts_model</text>
</g>
<!-- \\Accounts_model&#45;&gt;\\CI_Model -->
<g id="edge55" class="edge"><title>\\Accounts_model&#45;&gt;\\CI_Model</title>
<path fill="none" stroke="black" d="M316.827,-1357.81C306.448,-1353.77 296.749,-1347.8 290,-1339 114.757,-1110.45 401.718,-266.792 218,-45 208.104,-33.0535 193.83,-25.925 178.854,-21.7736"/>
<polygon fill="none" stroke="black" points="179.486,-18.3268 168.951,-19.4547 177.89,-25.1425 179.486,-18.3268"/>
</g>
<!-- \\Review_model -->
<g id="node76" class="node"><title>\\Review_model</title>
<polygon fill="none" stroke="black" points="420,-1330 324,-1330 324,-1294 420,-1294 420,-1330"/>
<text text-anchor="middle" x="372" y="-1309.1" font-family="Times Roman,serif" font-size="11.00">Review_model</text>
</g>
<!-- \\Review_model&#45;&gt;\\CI_Model -->
<g id="edge57" class="edge"><title>\\Review_model&#45;&gt;\\CI_Model</title>
<path fill="none" stroke="black" d="M323.22,-1306.02C310.517,-1302.06 298.13,-1295.58 290,-1285 121.783,-1066.16 394.332,-257.353 218,-45 208.09,-33.0655 193.81,-25.9415 178.834,-21.7906"/>
<polygon fill="none" stroke="black" points="179.466,-18.3439 168.931,-19.4716 177.869,-25.1596 179.466,-18.3439"/>
</g>
<!-- \\Categories_model -->
<g id="node77" class="node"><title>\\Categories_model</title>
<polygon fill="none" stroke="black" points="431,-1276 313,-1276 313,-1240 431,-1240 431,-1276"/>
<text text-anchor="middle" x="372" y="-1255.1" font-family="Times Roman,serif" font-size="11.00">Categories_model</text>
</g>
<!-- \\Categories_model&#45;&gt;\\CI_Model -->
<g id="edge59" class="edge"><title>\\Categories_model&#45;&gt;\\CI_Model</title>
<path fill="none" stroke="black" d="M312.283,-1247.85C303.658,-1243.91 295.764,-1238.48 290,-1231 128.807,-1021.87 386.947,-247.915 218,-45 208.074,-33.0786 193.788,-25.9595 178.811,-21.8092"/>
<polygon fill="none" stroke="black" points="179.443,-18.3626 168.909,-19.49 177.847,-25.1782 179.443,-18.3626"/>
</g>
<!-- \\Shipping_costs_model -->
<g id="node78" class="node"><title>\\Shipping_costs_model</title>
<polygon fill="none" stroke="black" points="444,-1222 300,-1222 300,-1186 444,-1186 444,-1222"/>
<text text-anchor="middle" x="372" y="-1201.1" font-family="Times Roman,serif" font-size="11.00">Shipping_costs_model</text>
</g>
<!-- \\Shipping_costs_model&#45;&gt;\\CI_Model -->
<g id="edge61" class="edge"><title>\\Shipping_costs_model&#45;&gt;\\CI_Model</title>
<path fill="none" stroke="black" d="M299.902,-1186.61C296.198,-1183.86 292.842,-1180.68 290,-1177 135.831,-977.58 379.563,-238.478 218,-45 208.057,-33.0929 193.765,-25.9793 178.787,-21.8297"/>
<polygon fill="none" stroke="black" points="179.419,-18.3831 168.884,-19.5102 177.823,-25.1986 179.419,-18.3831"/>
</g>
<!-- \\Fees_model -->
<g id="node79" class="node"><title>\\Fees_model</title>
<polygon fill="none" stroke="black" points="413,-1168 331,-1168 331,-1132 413,-1132 413,-1168"/>
<text text-anchor="middle" x="372" y="-1147.1" font-family="Times Roman,serif" font-size="11.00">Fees_model</text>
</g>
<!-- \\Fees_model&#45;&gt;\\CI_Model -->
<g id="edge63" class="edge"><title>\\Fees_model&#45;&gt;\\CI_Model</title>
<path fill="none" stroke="black" d="M330.135,-1145.88C315.173,-1142.21 299.645,-1135.44 290,-1123 142.854,-933.287 372.18,-229.042 218,-45 208.038,-33.1087 193.739,-26.001 178.76,-21.8522"/>
<polygon fill="none" stroke="black" points="179.393,-18.4056 168.858,-19.5325 177.796,-25.2211 179.393,-18.4056"/>
</g>
<!-- \\Users_model -->
<g id="node80" class="node"><title>\\Users_model</title>
<polygon fill="none" stroke="black" points="416,-1114 328,-1114 328,-1078 416,-1078 416,-1114"/>
<text text-anchor="middle" x="372" y="-1093.1" font-family="Times Roman,serif" font-size="11.00">Users_model</text>
</g>
<!-- \\Users_model&#45;&gt;\\CI_Model -->
<g id="edge65" class="edge"><title>\\Users_model&#45;&gt;\\CI_Model</title>
<path fill="none" stroke="black" d="M327.16,-1091.09C313.154,-1087.26 299.022,-1080.59 290,-1069 149.876,-888.992 364.798,-219.608 218,-45 208.017,-33.1262 193.71,-26.0251 178.73,-21.8771"/>
<polygon fill="none" stroke="black" points="179.363,-18.4306 168.828,-19.5571 177.766,-25.2461 179.363,-18.4306"/>
</g>
<!-- \\Items_model -->
<g id="node81" class="node"><title>\\Items_model</title>
<polygon fill="none" stroke="black" points="416,-1060 328,-1060 328,-1024 416,-1024 416,-1060"/>
<text text-anchor="middle" x="372" y="-1039.1" font-family="Times Roman,serif" font-size="11.00">Items_model</text>
</g>
<!-- \\Items_model&#45;&gt;\\CI_Model -->
<g id="edge67" class="edge"><title>\\Items_model&#45;&gt;\\CI_Model</title>
<path fill="none" stroke="black" d="M327.186,-1037.07C313.182,-1033.24 299.045,-1026.57 290,-1015 156.896,-844.696 357.418,-210.175 218,-45 207.994,-33.1456 193.678,-26.0519 178.697,-21.9048"/>
<polygon fill="none" stroke="black" points="179.331,-18.4584 168.796,-19.5846 177.734,-25.2738 179.331,-18.4584"/>
</g>
<!-- \\Auth_model -->
<g id="node82" class="node"><title>\\Auth_model</title>
<polygon fill="none" stroke="black" points="414,-1006 330,-1006 330,-970 414,-970 414,-1006"/>
<text text-anchor="middle" x="372" y="-985.1" font-family="Times Roman,serif" font-size="11.00">Auth_model</text>
</g>
<!-- \\Auth_model&#45;&gt;\\CI_Model -->
<g id="edge69" class="edge"><title>\\Auth_model&#45;&gt;\\CI_Model</title>
<path fill="none" stroke="black" d="M329.356,-983.607C314.669,-979.885 299.533,-973.143 290,-961 163.914,-800.397 350.039,-200.745 218,-45 207.968,-33.1674 193.642,-26.082 178.661,-21.9358"/>
<polygon fill="none" stroke="black" points="179.294,-18.4896 168.76,-19.6153 177.697,-25.3049 179.294,-18.4896"/>
</g>
<!-- \\Location_model -->
<g id="node83" class="node"><title>\\Location_model</title>
<polygon fill="none" stroke="black" points="425,-952 319,-952 319,-916 425,-916 425,-952"/>
<text text-anchor="middle" x="372" y="-931.1" font-family="Times Roman,serif" font-size="11.00">Location_model</text>
</g>
<!-- \\Location_model&#45;&gt;\\CI_Model -->
<g id="edge71" class="edge"><title>\\Location_model&#45;&gt;\\CI_Model</title>
<path fill="none" stroke="black" d="M318.278,-926.147C307.416,-922.113 297.149,-916.06 290,-907 170.931,-756.096 342.663,-191.317 218,-45 207.991,-33.2528 193.75,-26.1889 178.851,-22.0352"/>
<polygon fill="none" stroke="black" points="179.54,-18.6017 169.003,-19.7059 177.929,-25.4137 179.54,-18.6017"/>
</g>
<!-- \\Order_model -->
<g id="node84" class="node"><title>\\Order_model</title>
<polygon fill="none" stroke="black" points="417,-898 327,-898 327,-862 417,-862 417,-898"/>
<text text-anchor="middle" x="372" y="-877.1" font-family="Times Roman,serif" font-size="11.00">Order_model</text>
</g>
<!-- \\Order_model&#45;&gt;\\CI_Model -->
<g id="edge73" class="edge"><title>\\Order_model&#45;&gt;\\CI_Model</title>
<path fill="none" stroke="black" d="M326.855,-874.871C312.999,-871.023 299.037,-864.388 290,-853 177.945,-711.791 335.289,-181.892 218,-45 207.959,-33.2806 193.705,-26.2273 178.805,-22.0749"/>
<polygon fill="none" stroke="black" points="179.494,-18.6416 168.957,-19.7453 177.883,-25.4535 179.494,-18.6416"/>
</g>
<!-- \\Bitcoin_model -->
<g id="node85" class="node"><title>\\Bitcoin_model</title>
<polygon fill="none" stroke="black" points="421,-844 323,-844 323,-808 421,-808 421,-844"/>
<text text-anchor="middle" x="372" y="-823.1" font-family="Times Roman,serif" font-size="11.00">Bitcoin_model</text>
</g>
<!-- \\Bitcoin_model&#45;&gt;\\CI_Model -->
<g id="edge75" class="edge"><title>\\Bitcoin_model&#45;&gt;\\CI_Model</title>
<path fill="none" stroke="black" d="M322.614,-819.556C310.215,-815.57 298.138,-809.189 290,-799 184.956,-667.483 327.918,-172.471 218,-45 207.922,-33.3124 193.654,-26.2713 178.752,-22.1205"/>
<polygon fill="none" stroke="black" points="179.442,-18.6872 168.905,-19.7905 177.83,-25.4991 179.442,-18.6872"/>
</g>
<!-- \\Review_auth_model -->
<g id="node86" class="node"><title>\\Review_auth_model</title>
<polygon fill="none" stroke="black" points="437,-790 307,-790 307,-754 437,-754 437,-790"/>
<text text-anchor="middle" x="372" y="-769.1" font-family="Times Roman,serif" font-size="11.00">Review_auth_model</text>
</g>
<!-- \\Review_auth_model&#45;&gt;\\CI_Model -->
<g id="edge77" class="edge"><title>\\Review_auth_model&#45;&gt;\\CI_Model</title>
<path fill="none" stroke="black" d="M306.894,-758.812C300.45,-755.242 294.604,-750.722 290,-745 93.927,-501.341 423.102,-281.109 218,-45 207.879,-33.3493 193.595,-26.3222 178.691,-22.1732"/>
<polygon fill="none" stroke="black" points="179.381,-18.7401 168.844,-19.8428 177.769,-25.5519 179.381,-18.7401"/>
</g>
<!-- \\Alerts_model -->
<g id="node87" class="node"><title>\\Alerts_model</title>
<polygon fill="none" stroke="black" points="418,-736 326,-736 326,-700 418,-700 418,-736"/>
<text text-anchor="middle" x="372" y="-715.1" font-family="Times Roman,serif" font-size="11.00">Alerts_model</text>
</g>
<!-- \\Alerts_model&#45;&gt;\\CI_Model -->
<g id="edge79" class="edge"><title>\\Alerts_model&#45;&gt;\\CI_Model</title>
<path fill="none" stroke="black" d="M325.715,-712.389C312.293,-708.484 298.879,-701.939 290,-691 107.933,-466.705 408.378,-262.286 218,-45 207.83,-33.3924 193.527,-26.3817 178.62,-22.235"/>
<polygon fill="none" stroke="black" points="179.311,-18.802 168.774,-19.904 177.699,-25.6137 179.311,-18.802"/>
</g>
<!-- \\Logs_Model -->
<g id="node88" class="node"><title>\\Logs_Model</title>
<polygon fill="none" stroke="black" points="413,-682 331,-682 331,-646 413,-646 413,-682"/>
<text text-anchor="middle" x="372" y="-661.1" font-family="Times Roman,serif" font-size="11.00">Logs_Model</text>
</g>
<!-- \\Logs_Model&#45;&gt;\\CI_Model -->
<g id="edge81" class="edge"><title>\\Logs_Model&#45;&gt;\\CI_Model</title>
<path fill="none" stroke="black" d="M330.484,-659.602C315.567,-655.897 299.979,-649.169 290,-637 121.927,-432.054 393.665,-243.477 218,-45 207.772,-33.4435 193.447,-26.4524 178.537,-22.3082"/>
<polygon fill="none" stroke="black" points="179.229,-18.8754 168.691,-19.9766 177.616,-25.6869 179.229,-18.8754"/>
</g>
<!-- \\General_model -->
<g id="node89" class="node"><title>\\General_model</title>
<polygon fill="none" stroke="black" points="423,-628 321,-628 321,-592 423,-592 423,-628"/>
<text text-anchor="middle" x="372" y="-607.1" font-family="Times Roman,serif" font-size="11.00">General_model</text>
</g>
<!-- \\General_model&#45;&gt;\\CI_Model -->
<g id="edge83" class="edge"><title>\\General_model&#45;&gt;\\CI_Model</title>
<path fill="none" stroke="black" d="M320.73,-602.642C309.085,-598.625 297.85,-592.456 290,-583 135.906,-397.384 378.969,-224.686 218,-45 207.756,-33.5647 193.5,-26.6099 178.67,-22.461"/>
<polygon fill="none" stroke="black" points="179.417,-19.0412 168.877,-20.1209 177.79,-25.8495 179.417,-19.0412"/>
</g>
<!-- \\Messages_model -->
<g id="node90" class="node"><title>\\Messages_model</title>
<polygon fill="none" stroke="black" points="428,-574 316,-574 316,-538 428,-538 428,-574"/>
<text text-anchor="middle" x="372" y="-553.1" font-family="Times Roman,serif" font-size="11.00">Messages_model</text>
</g>
<!-- \\Messages_model&#45;&gt;\\CI_Model -->
<g id="edge85" class="edge"><title>\\Messages_model&#45;&gt;\\CI_Model</title>
<path fill="none" stroke="black" d="M315.327,-546.487C305.693,-542.515 296.664,-536.908 290,-529 149.865,-362.691 364.294,-205.919 218,-45 207.672,-33.64 193.384,-26.7141 178.55,-22.5693"/>
<polygon fill="none" stroke="black" points="179.298,-19.1497 168.758,-20.2285 177.67,-25.9578 179.298,-19.1497"/>
</g>
<!-- \\Config_model -->
<g id="node91" class="node"><title>\\Config_model</title>
<polygon fill="none" stroke="black" points="418,-520 326,-520 326,-484 418,-484 418,-520"/>
<text text-anchor="middle" x="372" y="-499.1" font-family="Times Roman,serif" font-size="11.00">Config_model</text>
</g>
<!-- \\Config_model&#45;&gt;\\CI_Model -->
<g id="edge87" class="edge"><title>\\Config_model&#45;&gt;\\CI_Model</title>
<path fill="none" stroke="black" d="M325.216,-495.837C312.097,-491.893 298.981,-485.463 290,-475 163.795,-327.963 349.648,-187.184 218,-45 207.569,-33.7346 193.242,-26.8451 178.401,-22.7053"/>
<polygon fill="none" stroke="black" points="179.151,-19.2859 168.611,-20.3636 177.522,-26.0939 179.151,-19.2859"/>
</g>
<!-- \\CI_Input -->
<g id="node92" class="node"><title>\\CI_Input</title>
<polygon fill="none" stroke="black" points="405,-196 339,-196 339,-160 405,-160 405,-196"/>
<text text-anchor="middle" x="372" y="-175.1" font-family="Times Roman,serif" font-size="11.00">CI_Input</text>
</g>
</g>
</svg>
